<?xml version="1.0" encoding="UTF-8"?> <svg xmlns="http://www.w3.org/2000/svg" width="382" height="271" viewBox="0 0 382 271" fill="none"><rect width="382" height="271" fill="white"></rect><path d="M53.7227 244.132C53.7227 244.132 6.26919 215.241 31.2813 158.298C47.091 122.291 83.8416 133.247 82.0578 78.2578C80.274 23.269 166.961 18.5462 194.553 34.491C222.144 50.4358 219.694 60.0316 276.346 51.3383C324.868 43.8923 337.628 97.2749 317.281 127.166C292.682 163.304 390.335 168.871 340.312 244.134L53.7227 244.132Z" fill="#EBF2F9"></path><path d="M236.937 244.098H137.594L144.243 218.19H230.626L236.937 244.098Z" fill="#8C9DF4"></path><path d="M187.443 221.454C211.294 221.454 230.628 219.992 230.628 218.19C230.628 216.387 211.294 214.926 187.443 214.926C163.593 214.926 144.258 216.387 144.258 218.19C144.258 219.992 163.593 221.454 187.443 221.454Z" fill="#6980E2"></path><path d="M209.219 237.038C209.22 237.476 209.089 237.905 208.845 238.269C208.6 238.633 208.253 238.917 207.846 239.085C207.439 239.253 206.991 239.297 206.559 239.211C206.127 239.126 205.73 238.915 205.418 238.606C205.107 238.296 204.895 237.902 204.809 237.472C204.722 237.043 204.766 236.597 204.935 236.193C205.103 235.788 205.389 235.442 205.755 235.199C206.121 234.956 206.552 234.826 206.992 234.826C207.285 234.825 207.574 234.883 207.845 234.994C208.115 235.105 208.36 235.268 208.567 235.473C208.774 235.679 208.938 235.923 209.05 236.191C209.162 236.46 209.219 236.748 209.219 237.038Z" fill="#F78248"></path><path d="M217.903 237.038C217.903 237.476 217.773 237.905 217.528 238.269C217.284 238.633 216.936 238.917 216.529 239.085C216.122 239.253 215.675 239.297 215.243 239.211C214.81 239.126 214.414 238.915 214.102 238.606C213.79 238.296 213.578 237.902 213.492 237.472C213.406 237.043 213.45 236.597 213.619 236.193C213.787 235.788 214.073 235.442 214.439 235.199C214.805 234.956 215.236 234.826 215.676 234.826C215.968 234.825 216.258 234.883 216.528 234.994C216.798 235.105 217.044 235.268 217.251 235.473C217.457 235.679 217.622 235.923 217.733 236.191C217.845 236.46 217.903 236.748 217.903 237.038Z" fill="#AEC3FF"></path><path d="M226.583 237.038C226.583 237.476 226.453 237.905 226.208 238.269C225.963 238.633 225.616 238.917 225.209 239.085C224.802 239.253 224.354 239.297 223.922 239.211C223.49 239.126 223.093 238.915 222.781 238.605C222.47 238.296 222.258 237.901 222.172 237.471C222.086 237.042 222.13 236.596 222.299 236.192C222.467 235.787 222.753 235.441 223.12 235.198C223.486 234.955 223.917 234.825 224.357 234.826C224.947 234.826 225.513 235.059 225.931 235.474C226.348 235.889 226.583 236.452 226.583 237.038Z" fill="#213F7A"></path><path d="M63.8242 243.529H69.8086C69.7045 242.805 69.5448 242.091 69.331 241.392C69.2406 241.098 69.1276 240.811 68.9929 240.534C68.4175 239.378 64.7132 240.113 64.7132 240.113C64.7132 240.113 64.3694 240.399 64.1019 241.524C63.9516 242.183 63.8588 242.854 63.8242 243.529Z" fill="#233862"></path><path d="M74.8122 152.631C74.8122 152.631 79.581 153.464 80.6585 156.263C81.736 159.062 87.8282 204.272 87.8282 204.272C87.8282 204.272 84.8073 206.649 78.3338 205.795C71.8603 204.941 74.8122 152.631 74.8122 152.631Z" fill="#8C9DF4"></path><path d="M81.9107 241.649C81.928 242.459 82.0301 243.223 82.325 243.529H94.1643C94.0133 243.1 93.5889 242.462 92.3719 242.266C90.9909 242.043 88.8388 241.382 87.5815 240.062C87.1251 239.599 86.8042 239.022 86.6536 238.391C86.0969 235.925 82.0503 239.146 82.0503 239.146C81.951 239.977 81.9043 240.813 81.9107 241.649Z" fill="#233862"></path><path d="M87.007 240.451C85.685 240.871 83.156 242.152 81.5491 241.549C80.5119 241.16 74.7088 224.472 74.3319 217.173C74.2762 216.443 74.1773 215.716 74.0356 214.998C73.6918 213.114 73.0905 210.525 72.3985 207.669C70.5413 200.015 68.0296 190.44 68.0829 187.38C68.1677 182.63 82.3245 186.379 82.3245 186.379C82.3245 186.379 83.2984 190.275 83.4926 195.916C83.8767 207.114 84.9312 226.029 87.8083 239.165C87.8585 239.44 87.8044 239.724 87.6564 239.961C87.5084 240.199 87.277 240.373 87.007 240.451Z" fill="#ED7D2B"></path><path d="M77.1838 187.396L69.7033 241.318C69.7033 241.318 66.4162 242.104 63.8613 241.475C63.8613 241.475 61.6704 212.799 61.8474 205.861C62.0243 198.923 60.275 187.31 62.2487 186.03C64.2224 184.75 77.1838 187.396 77.1838 187.396Z" fill="#F99746"></path><path d="M61.3086 155.1C61.3086 155.1 69.1717 150.045 74.8123 152.631C75.7099 153.043 76.7356 154.191 77.4693 154.997C79.5077 157.229 83.4911 192.709 83.4911 192.709C83.4911 192.709 72.184 196.516 61.3086 191.422V155.1Z" fill="white"></path><path d="M75.2578 152.508C75.2578 152.508 83.2173 155.752 84.2948 158.244C85.3723 160.735 88.8751 176.035 88.8751 177.824C88.8751 179.614 82.7742 178.225 81.7917 175.33C80.9761 172.927 78.2241 165.543 76.774 160.873L75.2578 152.508Z" fill="#8C9DF4"></path><path d="M73.6038 154.974C71.866 155.313 69.314 154.951 67.4453 153.727C68.2883 151.725 68.635 150.141 68.7573 149.117C68.7645 149.063 68.7702 149.01 68.776 148.96C68.8223 148.609 68.8296 148.255 68.7976 147.903H73.2901C73.2901 147.903 74.5172 148.462 74.5172 148.847C74.5172 149.054 74.5172 149.252 74.5172 149.44C74.5259 149.954 74.5474 150.402 74.5748 150.788C74.604 151.407 74.681 152.024 74.8049 152.631C74.8049 152.631 75.353 154.632 73.6038 154.974Z" fill="#FFB27D"></path><path d="M74.5823 150.792C71.1787 151.446 69.2021 149.596 68.759 149.121C68.6971 149.054 68.6641 149.013 68.6641 149.013C68.7 148.995 68.7374 148.98 68.7777 148.964C70.0436 148.453 72.9193 148.858 74.5319 149.445C74.5334 149.954 74.5549 150.401 74.5823 150.792Z" fill="#E2915A"></path><path d="M67.6449 147.169C68.2534 150.423 72.477 150.316 74.3026 150.113C74.8161 150.056 75.1398 149.99 75.1398 149.99C75.7152 149.837 76.0418 148.93 76.1928 147.741C76.4906 145.39 76.1137 141.939 75.7138 141.055C75.1125 139.727 73.9803 138.29 69.7265 139.327C65.4727 140.364 66.8652 142.998 67.6449 147.169Z" fill="#FFB27D"></path><path d="M75.874 139.239C75.2986 138.44 74.06 137.461 72.9408 136.859C70.5355 135.565 67.457 136.899 67.4441 136.905C63.97 138.424 63.0637 141.067 64.905 145.184C66.8528 149.537 68.7071 149.045 68.7071 149.045C68.7071 149.045 68.3144 148.801 68.3489 147.445C68.3489 147.368 68.3489 147.302 68.3576 147.247C68.3691 147.11 68.3492 146.972 68.2993 146.844C68.2495 146.715 68.171 146.599 68.0698 146.505C67.6383 146.122 67.4282 144.965 67.7821 144.646C68.2137 144.257 68.8308 144.729 69.0265 145.092C69.0635 145.155 69.1133 145.21 69.1725 145.252C69.2318 145.295 69.2994 145.326 69.371 145.341C69.4425 145.357 69.5166 145.358 69.5885 145.344C69.6604 145.33 69.7287 145.301 69.7889 145.259C70.8707 144.58 70.1673 143.221 71.2016 142.389C72.2359 141.556 74.3304 142.256 75.8812 141.594C77.9153 140.84 76.3127 139.843 75.874 139.239Z" fill="#233862"></path><path d="M76.3619 207.594C75.6771 207.769 74.9996 207.913 74.3263 208.023C73.7293 208.125 73.1367 208.199 72.5425 208.249C69.1778 208.535 65.7972 208.07 61.8469 206.943C60.9579 206.691 60.0367 206.405 59.0834 206.085C58.9827 206.052 59.3438 195.664 59.761 184.951C59.8027 183.844 59.8473 182.734 59.8905 181.632C59.9092 181.164 59.9264 180.7 59.9451 180.237C60.3235 170.76 60.6989 162.203 60.7781 161.742C60.9579 160.699 61.1276 159.811 61.3118 159.04C61.8498 156.796 62.5187 155.565 63.976 154.506C64.1198 154.399 65.2836 153.814 66.3107 153.306C67.1623 152.886 67.919 152.518 67.919 152.518C68.2571 152.684 68.6642 153.455 69.09 154.539C69.8726 156.541 70.717 159.595 71.3054 161.879V161.891C71.6837 163.365 71.9542 164.514 72.0318 164.844C72.1628 165.401 72.3368 166.478 72.5411 167.939C72.8173 169.926 73.1482 172.625 73.4977 175.686C73.5342 176.001 73.5701 176.319 73.6056 176.641C73.6459 177.007 73.6891 177.379 73.7308 177.755L73.7725 178.11C73.9077 179.322 74.0429 180.573 74.1782 181.846C74.2904 182.897 75.8944 183.657 76.0051 184.727C76.0684 185.355 76.2022 191.149 76.3734 192.998C76.4942 194.324 76.4079 206.973 76.3619 207.594Z" fill="#8C9DF4"></path><path d="M64.7552 165.56C64.7552 165.581 64.4819 175.142 71.7149 176.302C78.9479 177.462 74.1432 177.771 74.1432 177.771C74.1432 177.771 60.533 177.199 60.3086 176.839C60.0842 176.478 64.7552 165.56 64.7552 165.56Z" fill="#6980E2"></path><path d="M70.8638 180.407C70.8638 180.407 70.7285 180.503 70.4682 180.669L70.4538 180.678C69.3504 181.378 66.0763 183.286 61.3075 184.568C60.8069 184.702 60.2899 184.829 59.7567 184.948C59.7984 183.841 59.843 182.731 59.8862 181.629C59.284 181.585 58.6853 181.503 58.0938 181.383C58.1125 181.24 58.1312 181.097 58.1513 180.945C58.7569 180.698 59.3597 180.46 59.9408 180.23C60.4156 180.045 60.873 179.869 61.3075 179.708C63.2653 178.968 64.7183 178.466 64.7183 178.466L70.5156 180.293L70.8638 180.407Z" fill="#6980E2"></path><path d="M72.3998 180.247C72.3998 180.247 71.6546 180.432 70.4693 180.676H70.4563C68.2697 181.114 64.5928 181.726 61.3086 181.693C60.8238 181.693 60.3476 181.669 59.8873 181.633C59.2851 181.59 58.6864 181.507 58.0949 181.387C56.8937 181.135 55.8881 180.709 55.2307 180.043C50.3396 175.095 57.8963 157.338 59.4845 155.61C61.3374 153.594 64.7208 152.893 66.5895 152.643L66.8139 152.614C67.4713 152.537 67.8928 152.521 67.9159 152.52C67.9159 152.52 67.772 152.987 67.5231 153.782C67.4282 154.09 67.3174 154.446 67.1966 154.844C66.0457 158.58 63.8347 165.921 62.8593 170.062C62.5026 171.578 62.3098 172.664 62.3976 172.988C62.7788 174.403 66.7262 175.134 69.2264 175.451C70.2693 175.586 71.062 175.649 71.2403 175.662H71.2763L71.4202 176.251L71.7654 177.665L72.1064 179.054L72.3998 180.247Z" fill="#8C9DF4"></path><path d="M86.0225 188.759L69.2461 188.055L72.6497 167.266L89.4275 167.97L86.0225 188.759Z" fill="#233862"></path><path d="M71.2741 175.661C71.2741 175.661 74.5411 175.435 74.7036 176.191C75.0863 177.956 71.897 179.405 70.8627 179.306C69.8284 179.208 70.5232 175.543 71.2741 175.661Z" fill="#FFB27D"></path><path d="M88.512 172.191C88.512 172.191 85.3874 171.219 85.0594 171.919C84.2769 173.546 87.0432 175.69 88.0718 175.832C89.1003 175.974 89.2715 172.246 88.512 172.191Z" fill="#FFB27D"></path><path d="M68.2543 151.471C68.2543 151.471 66.8805 152.122 66.1914 153.106C66.1914 153.106 71.3285 161.974 71.3055 161.888C71.2824 161.802 69.5691 152.607 68.2543 151.471Z" fill="#6980E2"></path><path d="M74.6523 151.597C75.1055 151.766 75.9729 152.65 76.1686 153.139L76.7785 160.878C76.7785 160.878 75.4752 155.199 74.812 152.631C74.717 152.294 74.6634 151.947 74.6523 151.597Z" fill="#6980E2"></path><path d="M78.2109 167.499C78.2109 167.499 78.3433 166.927 79.1072 166.99C79.871 167.053 84.1608 167.266 84.1608 167.266C84.1608 167.266 84.9894 167.253 84.9117 167.781L78.2109 167.499Z" fill="#C65447"></path><g opacity="0.4"><path d="M286.717 244.268H286.667C286.571 244.268 286.476 244.247 286.388 244.208C286.301 244.169 286.222 244.113 286.158 244.042C286.093 243.972 286.044 243.889 286.013 243.798C285.982 243.708 285.971 243.612 285.979 243.517L288.712 215.352L291.098 215.571L287.173 243.891C287.156 243.998 287.101 244.095 287.017 244.165C286.933 244.235 286.826 244.271 286.717 244.268Z" fill="#8C9DF4"></path><path d="M313.041 244.268H313.091C313.187 244.268 313.282 244.247 313.369 244.208C313.457 244.169 313.536 244.113 313.6 244.042C313.665 243.972 313.714 243.889 313.745 243.798C313.775 243.708 313.787 243.612 313.779 243.517L311.045 215.352L308.66 215.571L312.585 243.891C312.601 243.998 312.657 244.095 312.741 244.165C312.825 244.235 312.931 244.271 313.041 244.268Z" fill="#8C9DF4"></path><path d="M312.228 211.402L317.079 187.577C317.701 184.352 315.014 181.403 311.523 181.482L302.172 181.695C300.599 181.73 299.079 182.264 297.832 183.218C296.585 184.172 295.677 185.497 295.24 187L288.141 211.402H312.228Z" fill="#8C9DF4"></path><path d="M309.292 211.402L314.144 187.577C314.767 184.352 312.079 181.403 308.589 181.482L299.229 181.695C297.657 181.73 296.136 182.264 294.889 183.218C293.643 184.172 292.734 185.497 292.297 187L285.199 211.402H309.292Z" fill="#8C9DF4"></path><path d="M273.848 211.402H312.225V214.405C312.225 214.582 312.19 214.757 312.122 214.92C312.054 215.083 311.954 215.231 311.829 215.356C311.703 215.481 311.554 215.58 311.39 215.648C311.226 215.715 311.05 215.75 310.872 215.75H273.848C273.671 215.75 273.495 215.715 273.331 215.648C273.167 215.58 273.018 215.481 272.892 215.356C272.767 215.231 272.667 215.083 272.599 214.92C272.531 214.757 272.496 214.582 272.496 214.405V212.749C272.496 212.572 272.53 212.397 272.598 212.234C272.666 212.07 272.766 211.922 272.891 211.797C273.017 211.672 273.166 211.572 273.33 211.504C273.494 211.437 273.671 211.402 273.848 211.402Z" fill="#8C9DF4"></path><path d="M293.5 211.402H269.898C269.296 211.402 268.809 211.887 268.809 212.485V214.664C268.809 215.262 269.296 215.747 269.898 215.747H293.5C294.101 215.747 294.589 215.262 294.589 214.664V212.485C294.589 211.887 294.101 211.402 293.5 211.402Z" fill="#8C9DF4"></path></g><path d="M292.374 161.376C292.374 161.376 293.474 157.996 298.312 158.151C298.312 158.151 299.279 156.341 301.602 156.65C303.926 156.959 305.199 165.308 302.995 167.347C300.791 169.387 299.42 169.448 299.42 169.448L292.371 161.691L292.374 161.376Z" fill="#A9453D"></path><path d="M293.67 186.925L289.738 196.818C289.738 196.818 285.949 201.252 282.902 199.822L292.541 181.215L293.67 186.925Z" fill="#ABDDDA"></path><path d="M266.95 241.285C267.064 242.379 265.535 242.661 263.761 242.768C261.987 242.875 262.527 243.23 260.1 243.693C257.673 244.157 256.69 243.506 256.503 243.181C256.344 242.895 257.47 242.427 258.661 241.903L259.114 241.702C260.465 241.094 261.213 239.877 262.258 238.744C263.249 237.672 264.162 234.261 264.162 234.261L267.461 233.524C267.461 233.524 266.565 236.595 266.257 237.905C266.076 238.674 266.365 239.531 266.621 240.183C266.78 240.534 266.891 240.905 266.95 241.285Z" fill="#FFB27D"></path><path d="M263.761 242.768C261.987 242.874 262.527 243.23 260.1 243.693C257.673 244.157 256.69 243.506 256.503 243.181C256.344 242.895 257.47 242.428 258.661 241.903L258.681 241.923C259.887 242.254 261.16 242.254 262.366 241.923C263.97 241.472 265.515 240.492 266.621 240.179C266.775 240.531 266.881 240.901 266.936 241.281C267.064 242.379 265.532 242.661 263.761 242.768Z" fill="#0F2549"></path><path d="M271.945 203.299C273.72 202.06 285.231 196.627 291.221 195.987L298.067 193.5C298.067 193.5 303.704 201.796 303.748 208.148C303.768 211.107 302.397 211.401 302.397 211.401C302.397 211.401 281.173 211.559 280.244 211.655C278.722 211.811 276.712 215.582 276.216 219.018C275.719 222.453 266.865 236.426 266.865 236.426C266.865 236.426 265.019 237.014 264.166 236.964C263.249 236.909 262.824 236.605 262.824 236.605C262.824 236.605 267.944 206.094 271.945 203.299Z" fill="#ED7D2B"></path><path d="M272.436 241.285C272.55 242.379 271.021 242.661 269.247 242.768C267.473 242.875 268.013 243.23 265.586 243.693C263.159 244.157 262.963 242.427 264.162 241.903L264.616 241.702C265.966 241.094 266.714 239.877 267.76 238.744C268.749 237.672 269.663 234.261 269.663 234.261L272.961 233.524C272.961 233.524 272.067 236.595 271.757 237.905C271.576 238.674 271.865 239.531 272.121 240.183C272.275 240.535 272.381 240.905 272.436 241.285Z" fill="#FFB27D"></path><path d="M269.249 242.768C267.475 242.874 268.015 243.23 265.588 243.693C263.161 244.157 262.179 243.506 261.992 243.181C261.832 242.895 262.958 242.428 264.15 241.903L264.17 241.923C265.375 242.254 266.648 242.254 267.854 241.923C269.458 241.472 271.004 240.492 272.109 240.179C272.263 240.531 272.369 240.901 272.424 241.281C272.552 242.379 271.023 242.661 269.249 242.768Z" fill="#233862"></path><path d="M277.483 203.299C279.023 202.223 282.902 201.736 288.541 199.909C289.899 199.47 295.125 196.964 295.472 195.587L292.892 194.404L303.605 193.5C303.605 193.5 306.316 198.723 306.36 205.072C306.382 208.032 303.748 211.401 303.748 211.401C303.748 211.401 286.711 211.559 285.78 211.655C284.258 211.811 282.249 215.582 281.752 219.018C281.256 222.453 272.402 236.426 272.402 236.426C272.402 236.426 270.556 237.014 269.703 236.964C268.785 236.909 268.359 236.605 268.359 236.605C268.359 236.605 273.481 206.094 277.483 203.299Z" fill="#F99746"></path><path d="M294.422 176.1C294.4 176.111 296.58 177.092 298.139 176.577C299.614 176.095 300.913 173.887 300.892 173.884C300.252 173.793 299.598 173.169 299.419 169.45L299.132 169.522L294.367 170.719C294.367 170.719 294.556 172.219 294.633 173.638C294.702 174.821 294.689 175.965 294.422 176.1Z" fill="#FFB27D"></path><path d="M294.371 170.713C294.371 170.713 294.371 171.022 294.548 172.418C297.244 171.743 298.432 170.853 299.269 169.836L294.371 170.713Z" fill="#ED975D"></path><path d="M293.357 170.901C293.357 170.901 299.658 171.921 300.236 168.009C300.814 164.098 302.019 161.596 298.019 160.779C294.02 159.963 293.016 161.34 292.504 162.6C291.992 163.86 291.733 170.53 293.357 170.901Z" fill="#FFB27D"></path><path d="M293.348 160.615C293.348 160.615 296.209 165.106 298.764 166.17C301.319 167.234 302.573 166.694 302.573 166.694C301.807 165.44 301.308 164.043 301.109 162.59C301.066 162.249 300.933 161.926 300.722 161.654C300.512 161.382 300.232 161.17 299.912 161.041C298.079 160.312 294.533 159.16 293.348 160.615Z" fill="#A9453D"></path><path d="M295.862 161.05C295.862 161.05 294.185 161.908 293.494 162.706C292.828 163.48 292.056 165.578 292.113 166.519C292.113 166.519 291.285 162.004 293.008 160.452C294.836 158.801 295.862 161.05 295.862 161.05Z" fill="#A9453D"></path><path d="M289.381 185.655C289.573 198.385 284.851 194.826 286.252 196.035C286.591 196.321 287.979 198.493 293.182 198.752C297.114 198.947 304.201 197.102 304.465 196.38C305.371 193.884 304.731 193.107 305.487 189.284C305.565 188.878 305.663 188.437 305.775 187.958C306.405 185.332 307.018 184.44 304.782 180.222C302.756 176.4 300.37 173.296 300.179 173.408C294.831 176.564 294.646 173.918 294.646 173.918C294.646 173.918 289.286 179.444 289.381 185.655Z" fill="#2B478B"></path><path d="M294.651 173.917C294.651 173.917 289.184 174.84 288.53 177.197C287.875 179.554 280.82 198.115 280.82 198.115C280.82 198.115 287.192 199.402 288.485 198.115C289.778 196.827 292.668 180.695 292.668 180.695L294.651 173.917Z" fill="#8C9DF4"></path><path d="M294.602 173.086L294.65 173.917C294.028 176.044 292.503 183.214 291.197 188.291L290.754 180.425L291.506 179.814L291.219 178.783L293.687 174.126L294.602 173.086Z" fill="#6980E2"></path><path d="M294.652 208.046C303.1 210.855 309.787 208.967 309.787 208.967L308.408 200.851L307.654 196.425L306.04 186.925L303.279 177.889L300.867 176.437L298.762 186.925L294.652 208.046Z" fill="#8C9DF4"></path><path d="M304.835 187.911C304.979 188.132 304.979 192.448 300.893 193.504C296.808 194.561 306.882 195.587 306.882 195.587C306.882 195.587 310.131 193.108 310.084 192.499C310.036 191.89 304.835 187.911 304.835 187.911Z" fill="#6980E2"></path><path d="M297.379 197.309C297.379 197.309 302.982 200.499 308.407 200.851L307.653 196.425L297.379 197.309Z" fill="#6980E2"></path><path d="M293.708 196.657C293.708 196.657 293.244 197.891 293.027 198.087C292.92 198.196 292.785 198.271 292.637 198.306L292.867 197.209L293.708 196.657Z" fill="#FFB27D"></path><path d="M293.571 195.579L291.656 197.364C291.718 197.403 291.789 197.427 291.862 197.432C291.935 197.437 292.008 197.423 292.075 197.392C292.348 197.294 292.97 196.82 292.97 196.82L293.571 195.579Z" fill="#FFB27D"></path><path d="M298.022 194.743C298.022 194.743 294.066 195.068 293.571 195.578C293.076 196.089 291.988 197.724 291.935 198.199C291.882 198.674 293.167 197.475 293.617 197.198C293.905 197.013 294.838 197.044 295.296 197.054C297.223 197.093 298.2 196.465 298.2 196.465L298.022 194.743Z" fill="#FFB27D"></path><path d="M300.182 173.406C300.182 173.406 305.667 173.725 307.469 176.222C310.003 179.738 315.032 194.722 312.151 196.72C308.904 198.971 297.377 197.309 297.377 197.309C297.377 197.309 296.993 195.527 297.521 194.665C298.049 193.802 306.728 192.409 307.129 192.011C307.53 191.614 302.124 184.249 302.124 183.055C302.124 181.861 300.182 173.406 300.182 173.406Z" fill="#8C9DF4"></path><path d="M299.87 172.705L298.758 186.925L301.301 181.48L300.87 180.512C300.87 180.512 301.8 178.918 301.8 178.731C301.8 178.543 301.536 173.559 301.536 173.559L299.87 172.705Z" fill="#6980E2"></path><path d="M266.75 194.799H288.98L284.941 179.947H262.711L266.75 194.799Z" fill="#142D5E"></path><path d="M266.047 194.799H288.277L284.238 179.947H262.008L266.047 194.799Z" fill="#2B478B"></path><path d="M275.516 198.403L280.177 198.445L276.95 188.665L272.289 188.623L275.516 198.403Z" fill="#142D5E"></path><path d="M272.874 198.445H283.055V197.979H272.874V198.445Z" fill="#142D5E"></path><path d="M286.18 198.553H293.48V197.582H286.18V198.553Z" fill="#233862"></path><path d="M321.162 243.855C321.031 243.859 320.902 243.816 320.798 243.736C320.694 243.655 320.622 243.541 320.594 243.413L317.805 228.456L313.794 206.942L312.672 200.925L315.529 200.848L316.025 204.34L319.505 228.884L321.569 243.432C321.574 243.487 321.567 243.542 321.549 243.595C321.53 243.647 321.501 243.695 321.462 243.735C321.424 243.775 321.377 243.807 321.325 243.827C321.274 243.848 321.218 243.857 321.162 243.855Z" fill="#4C64A5"></path><path d="M316.023 204.338C314.171 205.111 313.792 206.939 313.792 206.939L312.57 200.566L315.521 200.852L316.023 204.338Z" fill="#4C64A5"></path><path d="M242.208 243.708C242.34 243.713 242.471 243.672 242.576 243.591C242.681 243.511 242.755 243.396 242.783 243.267L245.572 228.359L249.583 206.918L250.705 200.922L247.837 200.852L247.34 204.333L243.861 228.791L241.795 243.283C241.789 243.339 241.796 243.395 241.815 243.448C241.833 243.501 241.863 243.55 241.902 243.59C241.942 243.631 241.989 243.662 242.042 243.682C242.095 243.703 242.151 243.711 242.208 243.708Z" fill="#4C64A5"></path><path d="M247.344 204.326C249.195 205.096 249.575 206.918 249.575 206.918L251.231 200.768L247.836 200.852L247.344 204.326Z" fill="#4C64A5"></path><path d="M323.873 198.445H241.489C241.001 198.445 240.605 198.838 240.605 199.323V199.967C240.605 200.452 241.001 200.845 241.489 200.845H323.873C324.361 200.845 324.756 200.452 324.756 199.967V199.323C324.756 198.838 324.361 198.445 323.873 198.445Z" fill="#4C64A5"></path><path d="M153.858 218.19L116.227 79.3821C116.227 79.3821 181.046 36.9326 250.994 79.3821L219.13 218.19H153.858Z" fill="#F5F9FD"></path><path d="M214.34 185.282C214.34 185.282 213.078 164.095 215.692 157.597C218.306 151.099 244.45 114.275 226.585 91.3149C208.719 68.3545 173.426 74.4146 158.176 83.5155C142.926 92.6164 153.383 110.81 147.28 119.469C141.178 128.128 135.127 133.151 138.613 135.1C142.099 137.05 146.89 136.399 146.89 140.514C146.89 144.629 145.229 145.773 146.972 148.468C148.716 151.162 146.397 151.067 147.548 153.378C148.699 155.689 149.158 155.412 148.759 156.095C148.361 156.779 146.144 160.788 147.016 163.819C147.887 166.85 153.26 168.007 160.522 167.429C167.784 166.851 172.285 166.129 172.721 169.883C173.157 173.638 173.44 185.273 173.44 185.273C173.44 185.273 213.885 185.119 214.34 185.282Z" fill="#8C9DF4"></path><path d="M211.73 151.098C211.73 151.098 233.308 121.833 224.245 102.129C215.182 82.4258 191.717 78.3695 175.766 80.688C159.815 83.0065 155.749 90.5398 159.19 96.9146C162.631 103.289 162.943 112.851 172.326 117.777C181.71 122.703 192.279 122.86 193.686 129.379C195.093 135.899 200.932 156.302 211.73 151.098Z" fill="#EE9849"></path><path d="M214.339 185.282C214.339 186.14 205.184 186.827 193.89 186.827C182.596 186.827 173.441 186.134 173.441 185.282C173.441 184.43 182.596 183.736 193.89 183.736C205.184 183.736 214.339 184.428 214.339 185.282Z" fill="#8C9DF4"></path><path d="M186.473 220.653C204.487 220.653 219.091 219.55 219.091 218.19C219.091 216.83 204.487 215.727 186.473 215.727C168.459 215.727 153.855 216.83 153.855 218.19C153.855 219.55 168.459 220.653 186.473 220.653Z" fill="#F5F9FD"></path><path d="M215.432 96.5939H198.857L193.514 91.2818H175.621V90.6182H193.79L199.133 95.9302H215.432V96.5939Z" fill="#EBF3FA"></path><path d="M175.133 90.9502C175.133 90.8544 175.161 90.7607 175.215 90.681C175.268 90.6013 175.345 90.5391 175.434 90.5024C175.523 90.4656 175.621 90.456 175.715 90.4745C175.81 90.4931 175.897 90.5392 175.965 90.6068C176.033 90.6745 176.08 90.7608 176.099 90.8547C176.118 90.9487 176.108 91.0461 176.071 91.1348C176.035 91.2234 175.972 91.2992 175.892 91.3527C175.812 91.4061 175.718 91.4348 175.622 91.4351C175.558 91.4354 175.494 91.4232 175.435 91.399C175.375 91.3747 175.321 91.3391 175.276 91.294C175.23 91.2489 175.194 91.1953 175.17 91.1363C175.145 91.0773 175.133 91.014 175.133 90.9502Z" fill="#EBF3FA"></path><path d="M214.984 96.2622C214.984 96.1742 215.011 96.0882 215.06 96.0151C215.109 95.9419 215.179 95.8849 215.261 95.8512C215.342 95.8176 215.432 95.8088 215.519 95.8259C215.606 95.8431 215.686 95.8855 215.748 95.9477C215.811 96.0099 215.853 96.0891 215.871 96.1754C215.888 96.2617 215.879 96.3511 215.845 96.4324C215.811 96.5137 215.754 96.5832 215.68 96.6321C215.607 96.6809 215.52 96.707 215.432 96.707C215.313 96.707 215.199 96.6602 215.115 96.5767C215.032 96.4933 214.984 96.3802 214.984 96.2622Z" fill="#EBF3FA"></path><path d="M215.449 98.7467H198.872L193.531 93.4347H175.637V92.771H193.807L199.15 98.0817H215.449V98.7467Z" fill="#EBF3FA"></path><path d="M175.152 93.1025C175.152 93.0065 175.18 92.9125 175.234 92.8326C175.287 92.7526 175.364 92.6903 175.453 92.6534C175.542 92.6165 175.64 92.6068 175.735 92.6255C175.83 92.6441 175.917 92.6903 175.985 92.7582C176.053 92.8261 176.1 92.9126 176.118 93.0068C176.137 93.101 176.127 93.1986 176.09 93.2873C176.053 93.3759 175.99 93.4517 175.91 93.5048C175.83 93.558 175.735 93.5862 175.639 93.5859C175.51 93.5859 175.386 93.535 175.295 93.4443C175.204 93.3537 175.152 93.2307 175.152 93.1025Z" fill="#EBF3FA"></path><path d="M215.004 98.4145C215.004 98.3266 215.03 98.2406 215.079 98.1674C215.128 98.0943 215.198 98.0373 215.28 98.0036C215.362 97.9699 215.452 97.9611 215.539 97.9783C215.625 97.9954 215.705 98.0378 215.768 98.1C215.83 98.1622 215.873 98.2415 215.89 98.3278C215.907 98.4141 215.898 98.5035 215.865 98.5848C215.831 98.6661 215.773 98.7355 215.7 98.7844C215.626 98.8333 215.54 98.8594 215.451 98.8594C215.333 98.8594 215.219 98.8125 215.135 98.7291C215.051 98.6457 215.004 98.5325 215.004 98.4145Z" fill="#EBF3FA"></path><path d="M215.449 100.976H198.872L193.531 95.6641H175.637V95.0005H193.807L199.15 100.313H215.449V100.976Z" fill="#EBF3FA"></path><path d="M175.152 95.3325C175.152 95.2366 175.181 95.1428 175.235 95.063C175.288 94.9832 175.365 94.9211 175.454 94.8844C175.543 94.8478 175.641 94.8383 175.736 94.8571C175.83 94.8759 175.917 94.9222 175.985 94.9902C176.054 95.0581 176.1 95.1447 176.118 95.2388C176.137 95.333 176.127 95.4305 176.09 95.5191C176.053 95.6076 175.99 95.6833 175.91 95.7364C175.83 95.7895 175.735 95.8177 175.639 95.8174C175.575 95.8174 175.511 95.8048 175.452 95.7804C175.393 95.7561 175.339 95.7203 175.294 95.6753C175.249 95.6302 175.213 95.5768 175.189 95.518C175.165 95.4591 175.152 95.3961 175.152 95.3325Z" fill="#EBF3FA"></path><path d="M215.004 100.645C215.004 100.557 215.03 100.471 215.079 100.397C215.128 100.324 215.198 100.267 215.28 100.234C215.362 100.2 215.452 100.191 215.539 100.208C215.625 100.225 215.705 100.268 215.768 100.33C215.83 100.392 215.873 100.471 215.89 100.558C215.907 100.644 215.898 100.733 215.865 100.815C215.831 100.896 215.773 100.966 215.7 101.014C215.626 101.063 215.54 101.089 215.451 101.089C215.333 101.089 215.219 101.042 215.135 100.959C215.051 100.876 215.004 100.762 215.004 100.645Z" fill="#EBF3FA"></path><path d="M190.229 117.129H189.56V105.765L187.234 103.452H175.891V102.787H187.51L190.229 105.489V117.129Z" fill="#EBF3FA"></path><path d="M175.764 102.636C175.86 102.635 175.955 102.664 176.035 102.717C176.115 102.77 176.178 102.846 176.215 102.934C176.252 103.023 176.262 103.121 176.243 103.215C176.225 103.309 176.178 103.396 176.11 103.463C176.042 103.531 175.955 103.578 175.86 103.596C175.765 103.615 175.667 103.605 175.578 103.568C175.489 103.531 175.412 103.469 175.359 103.389C175.305 103.309 175.277 103.215 175.277 103.119C175.277 103.056 175.29 102.993 175.314 102.934C175.339 102.876 175.375 102.822 175.42 102.777C175.465 102.732 175.519 102.697 175.578 102.673C175.636 102.648 175.7 102.636 175.764 102.636Z" fill="#EBF3FA"></path><path d="M189.406 117.019C189.406 116.923 189.434 116.829 189.488 116.749C189.541 116.669 189.617 116.606 189.706 116.57C189.795 116.533 189.893 116.523 189.988 116.541C190.083 116.56 190.17 116.606 190.238 116.674C190.307 116.741 190.353 116.828 190.372 116.922C190.391 117.016 190.381 117.114 190.345 117.202C190.308 117.291 190.245 117.367 190.165 117.42C190.085 117.473 189.99 117.502 189.894 117.502C189.765 117.502 189.641 117.451 189.55 117.36C189.458 117.27 189.407 117.147 189.406 117.019Z" fill="#EBF3FA"></path><path d="M192.313 119.48H191.646V104.9L188.242 101.516H176.125V100.851H188.518L192.313 104.625V119.48Z" fill="#EBF3FA"></path><path d="M175.764 100.699C175.86 100.698 175.955 100.727 176.035 100.78C176.115 100.833 176.178 100.909 176.215 100.997C176.252 101.086 176.262 101.184 176.243 101.278C176.225 101.372 176.178 101.459 176.11 101.526C176.042 101.594 175.955 101.641 175.86 101.659C175.765 101.678 175.667 101.668 175.578 101.631C175.489 101.594 175.412 101.532 175.359 101.452C175.305 101.372 175.277 101.278 175.277 101.182C175.277 101.119 175.29 101.056 175.314 100.997C175.339 100.939 175.375 100.885 175.42 100.84C175.465 100.795 175.519 100.76 175.578 100.736C175.636 100.711 175.7 100.699 175.764 100.699Z" fill="#EBF3FA"></path><path d="M191.492 119.48C191.492 119.384 191.521 119.29 191.574 119.21C191.628 119.131 191.704 119.069 191.794 119.032C191.883 118.995 191.981 118.986 192.076 119.005C192.17 119.023 192.257 119.07 192.325 119.138C192.393 119.206 192.44 119.292 192.458 119.386C192.477 119.48 192.467 119.578 192.43 119.667C192.393 119.755 192.33 119.831 192.25 119.884C192.169 119.937 192.075 119.965 191.978 119.965C191.914 119.965 191.851 119.952 191.792 119.928C191.733 119.904 191.679 119.868 191.634 119.823C191.589 119.778 191.553 119.724 191.529 119.665C191.504 119.607 191.492 119.544 191.492 119.48Z" fill="#EBF3FA"></path><path d="M194.876 122.304H194.207V103.351L189.745 98.9141H175.621V98.249H190.022L194.876 103.075V122.304Z" fill="#EBF3FA"></path><path d="M175.277 98.5864C175.277 98.4905 175.306 98.3967 175.36 98.3169C175.413 98.2371 175.49 98.175 175.579 98.1383C175.668 98.1017 175.766 98.0922 175.861 98.111C175.955 98.1298 176.042 98.1761 176.11 98.2441C176.179 98.312 176.225 98.3986 176.243 98.4927C176.262 98.5869 176.252 98.6844 176.215 98.773C176.178 98.8615 176.115 98.9372 176.035 98.9903C175.955 99.0434 175.86 99.0716 175.764 99.0713C175.7 99.0713 175.636 99.0587 175.577 99.0344C175.518 99.01 175.464 98.9742 175.419 98.9292C175.374 98.8841 175.338 98.8307 175.314 98.7719C175.29 98.7131 175.277 98.65 175.277 98.5864Z" fill="#EBF3FA"></path><path d="M194.31 121.86C194.398 121.822 194.496 121.81 194.59 121.827C194.685 121.843 194.773 121.887 194.842 121.953C194.911 122.019 194.96 122.104 194.98 122.198C195.001 122.291 194.994 122.388 194.959 122.477C194.925 122.566 194.864 122.643 194.786 122.698C194.707 122.753 194.614 122.784 194.518 122.786C194.422 122.788 194.327 122.762 194.246 122.711C194.165 122.66 194.101 122.587 194.062 122.499C194.036 122.441 194.021 122.378 194.02 122.315C194.018 122.251 194.029 122.188 194.052 122.128C194.075 122.069 194.11 122.015 194.154 121.969C194.199 121.923 194.252 121.886 194.31 121.86Z" fill="#EBF3FA"></path><path d="M197.714 126.756H197.047V104.267L199.022 102.304H215.43V102.967H199.298L197.714 104.542V126.756Z" fill="#EBF3FA"></path><path d="M199.746 129.163H199.078V105.952L200.776 104.265H215.432V104.928H201.052L199.746 106.227V129.163Z" fill="#EBF3FA"></path><path d="M202.08 129.163H201.578V106.836H215.429V107.336H202.08V129.163Z" fill="#EBF3FA"></path><path d="M214.945 102.636C214.945 102.54 214.973 102.446 215.027 102.366C215.08 102.286 215.156 102.224 215.245 102.187C215.334 102.15 215.433 102.14 215.527 102.159C215.622 102.177 215.709 102.223 215.777 102.291C215.846 102.359 215.892 102.445 215.911 102.539C215.93 102.633 215.921 102.731 215.884 102.819C215.847 102.908 215.784 102.984 215.704 103.037C215.624 103.091 215.529 103.119 215.433 103.119C215.304 103.119 215.18 103.068 215.089 102.978C214.997 102.887 214.946 102.764 214.945 102.636Z" fill="#EBF3FA"></path><path d="M215.433 104.112C215.529 104.112 215.624 104.14 215.704 104.194C215.784 104.247 215.847 104.323 215.884 104.411C215.92 104.5 215.93 104.597 215.911 104.691C215.892 104.785 215.846 104.872 215.778 104.94C215.71 105.007 215.623 105.054 215.528 105.072C215.434 105.091 215.335 105.081 215.246 105.045C215.157 105.008 215.081 104.946 215.027 104.866C214.974 104.786 214.945 104.693 214.945 104.597C214.945 104.468 214.997 104.345 215.088 104.254C215.18 104.163 215.304 104.112 215.433 104.112Z" fill="#EBF3FA"></path><path d="M215.433 106.596C215.529 106.596 215.624 106.625 215.704 106.678C215.784 106.731 215.847 106.807 215.884 106.896C215.921 106.985 215.93 107.082 215.911 107.176C215.892 107.27 215.846 107.357 215.777 107.424C215.709 107.492 215.622 107.538 215.527 107.557C215.433 107.575 215.334 107.566 215.245 107.529C215.156 107.492 215.08 107.429 215.027 107.349C214.973 107.269 214.945 107.176 214.945 107.08C214.946 106.951 214.997 106.828 215.089 106.738C215.18 106.647 215.304 106.596 215.433 106.596Z" fill="#EBF3FA"></path><path d="M201.344 129.163C201.344 129.067 201.372 128.973 201.426 128.894C201.48 128.814 201.556 128.752 201.645 128.715C201.734 128.678 201.832 128.669 201.927 128.688C202.021 128.706 202.108 128.752 202.176 128.82C202.244 128.888 202.291 128.974 202.31 129.068C202.329 129.163 202.319 129.26 202.282 129.349C202.245 129.437 202.183 129.513 202.102 129.566C202.022 129.62 201.928 129.648 201.831 129.648C201.767 129.648 201.704 129.636 201.645 129.611C201.585 129.587 201.531 129.551 201.486 129.506C201.441 129.461 201.405 129.408 201.38 129.349C201.356 129.29 201.344 129.227 201.344 129.163Z" fill="#EBF3FA"></path><path d="M198.926 129.163C198.926 129.067 198.954 128.973 199.008 128.894C199.062 128.814 199.138 128.752 199.227 128.715C199.316 128.678 199.414 128.669 199.509 128.688C199.603 128.706 199.69 128.752 199.758 128.82C199.826 128.888 199.873 128.974 199.892 129.068C199.911 129.163 199.901 129.26 199.864 129.349C199.827 129.437 199.765 129.513 199.684 129.566C199.604 129.62 199.51 129.648 199.413 129.648C199.349 129.648 199.286 129.636 199.227 129.611C199.167 129.587 199.114 129.551 199.068 129.506C199.023 129.461 198.987 129.408 198.963 129.349C198.938 129.29 198.926 129.227 198.926 129.163Z" fill="#EBF3FA"></path><path d="M196.895 126.763C196.895 126.667 196.923 126.573 196.977 126.494C197.03 126.414 197.107 126.352 197.196 126.315C197.285 126.278 197.383 126.269 197.478 126.288C197.573 126.307 197.659 126.353 197.728 126.421C197.796 126.489 197.842 126.575 197.861 126.669C197.879 126.764 197.869 126.861 197.832 126.95C197.795 127.038 197.732 127.114 197.652 127.167C197.572 127.22 197.477 127.248 197.381 127.248C197.317 127.248 197.253 127.236 197.194 127.211C197.135 127.187 197.082 127.151 197.036 127.106C196.991 127.061 196.955 127.007 196.931 126.949C196.907 126.89 196.894 126.827 196.895 126.763Z" fill="#EBF3FA"></path><path d="M220.589 127.241H219.921V115.544L214.804 110.456H204.266V109.792H215.081L220.589 115.268V127.241Z" fill="#EBF3FA"></path><path d="M217.841 133.042H217.174V116.834L213.277 112.96H204.266V112.294H213.553L217.841 116.558V133.042Z" fill="#EBF3FA"></path><path d="M215.59 133.042H214.922V117.812L212.122 115.027H204.266V114.364H212.398L215.59 117.538V133.042Z" fill="#EBF3FA"></path><path d="M212.902 136.615H212.234V119.311L210.748 117.834H205.132V133.042H204.465V117.17H211.026L212.902 119.036V136.615Z" fill="#EBF3FA"></path><path d="M210.095 137.063H209.428V119.812H207.753V136.615H207.086V119.148H210.095V137.063Z" fill="#EBF3FA"></path><path d="M186.815 116.534H186.148V108.621H172.031V107.958H186.815V116.534Z" fill="#EBF3FA"></path><path d="M183.962 115.615H183.295V111.107H173.176V110.443H183.962V115.615Z" fill="#EBF3FA"></path><path d="M181.486 115.616H180.817V113.527H177.402V112.864H181.486V115.616Z" fill="#EBF3FA"></path><path d="M171.296 105.944H166.793V105.279H171.018L172.842 103.466V87.9277H173.51V103.741L171.296 105.944Z" fill="#EBF3FA"></path><path d="M170.635 103.452H166.312V102.787H169.968V88.2441H170.635V103.452Z" fill="#EBF3FA"></path><path d="M167.523 89.4355H166.855V100.699H167.523V89.4355Z" fill="#EBF3FA"></path><path d="M207.965 92.6236H199.29L194.901 88.2598H175.621V87.5962H195.177L199.566 91.9586H207.965V92.6236Z" fill="#EBF3FA"></path><path d="M205.73 89.1323H200.964L198.711 86.8925L199.183 86.4233L201.24 88.4687H205.73V89.1323Z" fill="#EBF3FA"></path><path d="M192.707 97.2173L192.23 97.6821L195.917 101.417L196.394 100.953L192.707 97.2173Z" fill="#EBF3FA"></path><path d="M198.48 86.6578C198.48 86.5661 198.508 86.4765 198.559 86.4003C198.61 86.3241 198.683 86.2647 198.768 86.2296C198.853 86.1945 198.947 86.1854 199.037 86.2032C199.128 86.2211 199.211 86.2653 199.276 86.3301C199.341 86.3949 199.386 86.4774 199.404 86.5673C199.422 86.6572 199.412 86.7504 199.377 86.8351C199.342 86.9198 199.282 86.9921 199.206 87.0431C199.129 87.094 199.039 87.1212 198.947 87.1212C198.885 87.1214 198.825 87.1095 198.768 87.0863C198.711 87.0631 198.66 87.0289 198.617 86.9859C198.573 86.9428 198.539 86.8916 198.516 86.8353C198.492 86.779 198.48 86.7187 198.48 86.6578Z" fill="#EBF3FA"></path><path d="M205.266 88.8003C205.265 88.7086 205.292 88.6188 205.343 88.5424C205.395 88.466 205.467 88.4064 205.552 88.3711C205.637 88.3358 205.731 88.3265 205.822 88.3442C205.912 88.3619 205.995 88.4059 206.061 88.4707C206.126 88.5354 206.171 88.618 206.189 88.7079C206.207 88.7979 206.198 88.8911 206.162 88.9759C206.127 89.0606 206.067 89.1331 205.991 89.1841C205.914 89.2351 205.824 89.2623 205.732 89.2623C205.608 89.2623 205.49 89.2136 205.403 89.127C205.315 89.0405 205.266 88.9229 205.266 88.8003Z" fill="#EBF3FA"></path><path d="M192.117 97.4663C192.117 97.3746 192.144 97.2849 192.195 97.2085C192.246 97.1321 192.319 97.0724 192.404 97.0372C192.489 97.0019 192.583 96.9925 192.673 97.0102C192.764 97.0279 192.847 97.0719 192.912 97.1367C192.978 97.2014 193.022 97.284 193.04 97.3739C193.058 97.4639 193.049 97.5571 193.014 97.6419C192.979 97.7266 192.919 97.7991 192.842 97.8501C192.766 97.9011 192.676 97.9283 192.583 97.9283C192.46 97.9283 192.342 97.8797 192.254 97.7931C192.167 97.7065 192.118 97.589 192.117 97.4663Z" fill="#EBF3FA"></path><path d="M195.688 101.182C195.688 101.091 195.715 101.001 195.766 100.925C195.817 100.849 195.89 100.789 195.975 100.754C196.06 100.719 196.154 100.71 196.245 100.728C196.335 100.746 196.418 100.79 196.483 100.854C196.548 100.919 196.593 101.002 196.611 101.092C196.629 101.182 196.619 101.275 196.584 101.36C196.549 101.444 196.489 101.517 196.413 101.567C196.336 101.618 196.246 101.646 196.154 101.646C196.03 101.646 195.911 101.597 195.824 101.51C195.737 101.423 195.688 101.305 195.688 101.182Z" fill="#EBF3FA"></path><path d="M172.707 87.9277C172.707 87.836 172.734 87.7463 172.785 87.6699C172.836 87.5935 172.909 87.5339 172.994 87.4986C173.079 87.4633 173.173 87.4539 173.263 87.4716C173.354 87.4893 173.437 87.5334 173.502 87.5981C173.568 87.6629 173.612 87.7454 173.63 87.8354C173.648 87.9253 173.639 88.0186 173.604 88.1033C173.569 88.1881 173.509 88.2605 173.432 88.3115C173.356 88.3625 173.265 88.3897 173.173 88.3897C173.05 88.3897 172.931 88.3411 172.844 88.2545C172.757 88.1679 172.707 88.0504 172.707 87.9277Z" fill="#EBF3FA"></path><path d="M166.326 105.569C166.334 105.478 166.37 105.391 166.428 105.32C166.486 105.248 166.564 105.196 166.652 105.168C166.74 105.141 166.834 105.14 166.922 105.166C167.011 105.192 167.089 105.244 167.148 105.314C167.207 105.385 167.244 105.471 167.254 105.562C167.263 105.653 167.246 105.745 167.203 105.827C167.16 105.908 167.094 105.974 167.013 106.018C166.932 106.062 166.839 106.081 166.748 106.072C166.625 106.061 166.511 106.001 166.432 105.907C166.353 105.813 166.315 105.691 166.326 105.569Z" fill="#EBF3FA"></path><path d="M165.848 103.119C165.848 103.028 165.875 102.938 165.926 102.862C165.977 102.786 166.05 102.726 166.135 102.691C166.221 102.656 166.314 102.647 166.405 102.665C166.495 102.683 166.578 102.727 166.643 102.791C166.709 102.856 166.753 102.939 166.771 103.029C166.789 103.119 166.78 103.212 166.744 103.297C166.709 103.381 166.649 103.454 166.573 103.504C166.496 103.555 166.406 103.583 166.314 103.583C166.19 103.583 166.072 103.534 165.984 103.447C165.897 103.36 165.848 103.242 165.848 103.119Z" fill="#EBF3FA"></path><path d="M169.836 88.3369C169.836 88.2452 169.863 88.1556 169.915 88.0793C169.966 88.0031 170.039 87.9437 170.124 87.9087C170.209 87.8736 170.303 87.8645 170.393 87.8825C170.484 87.9005 170.567 87.9448 170.632 88.0098C170.697 88.0747 170.742 88.1574 170.759 88.2474C170.777 88.3374 170.768 88.4306 170.732 88.5153C170.697 88.5999 170.637 88.6722 170.56 88.723C170.483 88.7737 170.393 88.8006 170.301 88.8004C170.239 88.8004 170.179 88.7884 170.122 88.7651C170.066 88.7418 170.015 88.7076 169.972 88.6645C169.928 88.6215 169.894 88.5704 169.871 88.5142C169.848 88.458 169.836 88.3977 169.836 88.3369Z" fill="#EBF3FA"></path><path d="M166.723 89.4326C166.722 89.3409 166.749 89.2512 166.801 89.1748C166.852 89.0984 166.924 89.0388 167.009 89.0035C167.095 88.9682 167.188 88.9588 167.279 88.9765C167.369 88.9942 167.452 89.0382 167.518 89.103C167.583 89.1678 167.628 89.2503 167.646 89.3403C167.664 89.4302 167.655 89.5234 167.619 89.6082C167.584 89.693 167.525 89.7654 167.448 89.8164C167.371 89.8674 167.281 89.8946 167.189 89.8946C167.065 89.8946 166.947 89.846 166.86 89.7594C166.772 89.6728 166.723 89.5553 166.723 89.4326Z" fill="#EBF3FA"></path><path d="M166.723 100.645C166.723 100.553 166.75 100.463 166.801 100.387C166.852 100.311 166.925 100.251 167.01 100.216C167.096 100.181 167.189 100.172 167.28 100.19C167.37 100.208 167.453 100.252 167.518 100.317C167.584 100.382 167.628 100.464 167.646 100.554C167.664 100.644 167.655 100.737 167.619 100.822C167.584 100.907 167.524 100.979 167.448 101.03C167.371 101.081 167.281 101.108 167.189 101.108C167.065 101.108 166.947 101.059 166.859 100.972C166.772 100.885 166.723 100.767 166.723 100.645Z" fill="#EBF3FA"></path><path d="M177.059 113.195C177.059 113.104 177.086 113.014 177.137 112.938C177.188 112.862 177.261 112.802 177.346 112.767C177.431 112.732 177.525 112.723 177.616 112.741C177.706 112.759 177.789 112.803 177.854 112.868C177.919 112.932 177.964 113.015 177.982 113.105C178 113.195 177.991 113.288 177.955 113.373C177.92 113.457 177.86 113.53 177.784 113.581C177.707 113.632 177.617 113.659 177.525 113.659C177.401 113.659 177.283 113.61 177.195 113.523C177.108 113.436 177.059 113.318 177.059 113.195Z" fill="#EBF3FA"></path><path d="M180.688 115.464C180.687 115.372 180.714 115.282 180.765 115.206C180.816 115.13 180.889 115.07 180.974 115.035C181.059 114.999 181.153 114.99 181.244 115.008C181.334 115.025 181.417 115.069 181.483 115.134C181.548 115.199 181.593 115.282 181.611 115.372C181.629 115.461 181.62 115.555 181.584 115.639C181.549 115.724 181.489 115.797 181.413 115.848C181.336 115.899 181.246 115.926 181.154 115.926C181.03 115.926 180.912 115.877 180.825 115.791C180.737 115.704 180.688 115.587 180.688 115.464Z" fill="#EBF3FA"></path><path d="M172.809 110.775C172.809 110.684 172.836 110.594 172.887 110.518C172.939 110.442 173.011 110.382 173.097 110.347C173.182 110.312 173.276 110.303 173.366 110.321C173.457 110.339 173.54 110.383 173.605 110.448C173.67 110.513 173.714 110.596 173.732 110.686C173.75 110.776 173.74 110.869 173.705 110.954C173.669 111.038 173.609 111.111 173.533 111.161C173.456 111.212 173.366 111.239 173.273 111.239C173.212 111.239 173.152 111.227 173.095 111.204C173.039 111.18 172.987 111.146 172.944 111.103C172.901 111.06 172.867 111.009 172.844 110.953C172.82 110.896 172.808 110.836 172.809 110.775Z" fill="#EBF3FA"></path><path d="M183.16 115.615C183.16 115.523 183.187 115.434 183.238 115.357C183.289 115.281 183.362 115.221 183.447 115.186C183.532 115.151 183.626 115.141 183.717 115.159C183.807 115.177 183.891 115.221 183.956 115.286C184.021 115.351 184.066 115.434 184.083 115.524C184.101 115.614 184.092 115.707 184.057 115.792C184.021 115.877 183.961 115.949 183.884 116C183.807 116.051 183.717 116.077 183.625 116.077C183.564 116.077 183.503 116.065 183.447 116.042C183.391 116.019 183.339 115.985 183.296 115.942C183.253 115.899 183.219 115.848 183.196 115.792C183.172 115.736 183.16 115.676 183.16 115.615Z" fill="#EBF3FA"></path><path d="M186.016 116.382C186.016 116.29 186.043 116.201 186.094 116.124C186.146 116.048 186.218 115.989 186.304 115.954C186.389 115.919 186.483 115.909 186.573 115.927C186.664 115.945 186.747 115.99 186.812 116.055C186.877 116.12 186.921 116.202 186.939 116.292C186.957 116.382 186.947 116.476 186.912 116.56C186.876 116.645 186.816 116.717 186.74 116.768C186.663 116.819 186.573 116.846 186.48 116.845C186.419 116.845 186.359 116.833 186.302 116.81C186.246 116.787 186.194 116.753 186.151 116.709C186.108 116.666 186.074 116.615 186.051 116.559C186.027 116.503 186.015 116.443 186.016 116.382Z" fill="#EBF3FA"></path><path d="M171.562 108.29C171.563 108.198 171.59 108.108 171.641 108.032C171.692 107.956 171.765 107.897 171.85 107.861C171.935 107.826 172.029 107.817 172.12 107.835C172.21 107.853 172.293 107.897 172.358 107.962C172.423 108.027 172.468 108.109 172.486 108.199C172.504 108.289 172.494 108.382 172.459 108.467C172.424 108.552 172.364 108.624 172.288 108.675C172.211 108.726 172.121 108.753 172.029 108.753C171.905 108.753 171.786 108.704 171.699 108.617C171.612 108.53 171.562 108.412 171.562 108.29Z" fill="#EBF3FA"></path><path d="M185.382 105.279H174.105V105.942H185.382V105.279Z" fill="#EBF3FA"></path><path d="M184.922 105.612C184.922 105.52 184.949 105.43 185 105.354C185.051 105.277 185.124 105.218 185.209 105.183C185.294 105.147 185.388 105.138 185.479 105.156C185.569 105.174 185.652 105.218 185.718 105.283C185.783 105.348 185.827 105.43 185.845 105.52C185.863 105.61 185.854 105.704 185.818 105.788C185.783 105.873 185.723 105.945 185.646 105.996C185.569 106.047 185.479 106.074 185.387 106.074C185.263 106.073 185.145 106.025 185.058 105.938C184.971 105.852 184.922 105.734 184.922 105.612Z" fill="#EBF3FA"></path><path d="M173.641 105.612C173.64 105.52 173.667 105.43 173.719 105.354C173.77 105.277 173.842 105.218 173.928 105.183C174.013 105.147 174.107 105.138 174.197 105.156C174.288 105.174 174.371 105.218 174.436 105.283C174.502 105.348 174.546 105.43 174.564 105.52C174.582 105.61 174.573 105.704 174.537 105.788C174.502 105.873 174.442 105.945 174.365 105.996C174.288 106.047 174.198 106.074 174.105 106.074C173.982 106.074 173.864 106.025 173.777 105.938C173.69 105.852 173.641 105.734 173.641 105.612Z" fill="#EBF3FA"></path><path d="M357.609 243.529H38.2336C38.0183 243.529 37.8438 243.702 37.8438 243.916V244.112C37.8438 244.326 38.0183 244.5 38.2336 244.5H357.609C357.825 244.5 357.999 244.326 357.999 244.112V243.916C357.999 243.702 357.825 243.529 357.609 243.529Z" fill="#2E3552"></path><path d="M280.371 135.189L282.434 135.06C282.518 135.056 282.602 135.074 282.676 135.114C282.75 135.154 282.812 135.214 282.854 135.286C282.963 135.477 283.082 135.663 283.209 135.844C283.44 136.177 283.696 136.492 283.976 136.785C284.039 136.85 284.081 136.932 284.097 137.021C284.112 137.111 284.1 137.202 284.062 137.284L283.176 139.242C283.129 139.344 283.123 139.459 283.158 139.566C283.193 139.672 283.267 139.761 283.366 139.814L285.092 140.771C285.187 140.827 285.298 140.844 285.405 140.821C285.512 140.797 285.606 140.734 285.668 140.644L286.819 139.034C286.873 138.955 286.951 138.897 287.042 138.867C287.132 138.837 287.23 138.837 287.321 138.868C288.125 139.121 288.965 139.247 289.809 139.24C289.908 139.241 290.004 139.274 290.082 139.335C290.16 139.395 290.215 139.479 290.241 139.574L290.546 140.738C290.575 140.846 290.642 140.939 290.736 141C290.829 141.062 290.941 141.087 291.052 141.072L292.99 140.786C293.029 140.781 293.066 140.77 293.102 140.754C293.186 140.719 293.257 140.659 293.305 140.582C293.353 140.505 293.376 140.415 293.371 140.325L293.276 138.793L293.252 138.42C293.585 138.254 293.906 138.066 294.213 137.855C294.622 137.574 295.005 137.255 295.355 136.904C295.418 136.839 295.5 136.795 295.589 136.778C295.678 136.761 295.77 136.772 295.853 136.809L297.435 137.525C297.539 137.571 297.657 137.577 297.766 137.541C297.874 137.506 297.965 137.431 298.021 137.332L298.757 136.021L298.967 135.645C299.023 135.546 299.04 135.431 299.015 135.32C298.991 135.21 298.926 135.112 298.833 135.046L297.478 134.088C297.401 134.035 297.343 133.96 297.312 133.873C297.281 133.785 297.279 133.69 297.306 133.601C297.464 133.061 297.564 132.504 297.602 131.942C297.602 131.894 297.611 131.849 297.613 131.799C297.612 131.783 297.612 131.767 297.613 131.751C297.627 131.663 297.665 131.582 297.725 131.517C297.785 131.452 297.863 131.406 297.949 131.384L299.849 130.887C299.87 130.882 299.891 130.876 299.911 130.867C300.003 130.827 300.079 130.759 300.128 130.672C300.177 130.585 300.197 130.485 300.183 130.386L299.895 128.464C299.878 128.352 299.819 128.25 299.73 128.179C299.642 128.108 299.53 128.072 299.416 128.079L297.265 128.213C297.176 128.22 297.087 128.2 297.01 128.155C296.933 128.11 296.871 128.042 296.834 127.962C296.655 127.596 296.448 127.245 296.215 126.91C296.09 126.73 295.958 126.556 295.82 126.39C295.765 126.323 295.73 126.243 295.719 126.158C295.708 126.073 295.721 125.986 295.756 125.908L296.606 124.026C296.654 123.924 296.661 123.809 296.626 123.703C296.592 123.597 296.518 123.507 296.419 123.453L294.712 122.509C294.612 122.453 294.495 122.436 294.384 122.461C294.272 122.486 294.174 122.551 294.108 122.644L293.196 123.92C293.137 124.002 293.052 124.063 292.954 124.092C292.857 124.121 292.752 124.117 292.658 124.08C291.894 123.775 291.088 123.589 290.267 123.529C290.171 123.523 290.08 123.488 290.006 123.427C289.933 123.366 289.88 123.284 289.857 123.192L289.408 121.49C289.378 121.38 289.309 121.284 289.213 121.222C289.118 121.159 289.002 121.133 288.889 121.149L286.962 121.435C286.851 121.452 286.751 121.509 286.68 121.596C286.609 121.683 286.574 121.793 286.581 121.904V121.995L286.692 123.774C286.698 123.866 286.675 123.959 286.626 124.038C286.578 124.118 286.507 124.181 286.422 124.219C285.995 124.411 285.587 124.641 285.202 124.907C284.992 125.05 284.793 125.204 284.6 125.363C284.536 125.418 284.457 125.454 284.372 125.467C284.288 125.479 284.202 125.467 284.124 125.432L282.514 124.716C282.411 124.672 282.295 124.666 282.188 124.701C282.08 124.735 281.989 124.807 281.932 124.904L280.984 126.593C280.96 126.638 280.943 126.686 280.933 126.736C280.921 126.819 280.931 126.904 280.964 126.982C280.996 127.059 281.049 127.127 281.118 127.176L282.201 127.939C282.265 127.985 282.317 128.047 282.35 128.118C282.383 128.19 282.397 128.269 282.391 128.348C282.386 128.39 282.376 128.431 282.36 128.471C281.972 129.448 281.782 130.491 281.804 131.542C281.806 131.628 281.782 131.714 281.736 131.787C281.689 131.86 281.623 131.919 281.543 131.955C281.52 131.965 281.496 131.974 281.471 131.981L279.932 132.381C279.824 132.41 279.731 132.476 279.669 132.569C279.608 132.662 279.582 132.773 279.598 132.883V132.928L279.886 134.8C279.904 134.913 279.964 135.015 280.053 135.087C280.143 135.159 280.256 135.195 280.371 135.189ZM293.781 130.04C293.888 130.351 293.965 130.67 294.011 130.995C294.085 131.76 293.944 132.53 293.604 133.219C293.57 133.281 293.534 133.34 293.499 133.4C291.308 137.004 286.085 136.008 285.427 131.786C285.359 131.128 285.445 130.463 285.678 129.843C285.727 129.712 285.786 129.586 285.855 129.465C286.127 128.98 286.481 128.544 286.901 128.178C287.433 127.716 288.072 127.392 288.76 127.236C289.449 127.079 290.166 127.094 290.847 127.28C291.528 127.466 292.152 127.816 292.664 128.3C293.176 128.784 293.56 129.386 293.781 130.053V130.04Z" fill="#8C9DF4"></path><path d="M253.895 150.44H227.316C225.209 150.44 223.5 152.139 223.5 154.234V181.513C223.5 183.609 225.209 185.307 227.316 185.307H253.895C256.003 185.307 257.712 183.609 257.712 181.513V154.234C257.712 152.139 256.003 150.44 253.895 150.44Z" fill="#D5DFFC"></path><path d="M250.934 166.74C250.932 168.849 250.276 170.906 249.055 172.631C247.835 174.356 246.11 175.665 244.114 176.38C242.118 177.095 239.949 177.181 237.903 176.627C235.856 176.072 234.031 174.904 232.676 173.281C231.321 171.659 230.502 169.66 230.331 167.558C230.159 165.456 230.643 163.352 231.717 161.533C232.791 159.715 234.403 158.269 236.333 157.394C238.263 156.519 240.418 156.256 242.503 156.642C241.208 161.315 239.502 167.503 239.387 167.888C239.6 167.555 245.884 164.756 250.176 162.868C250.68 164.097 250.938 165.412 250.934 166.74Z" fill="#2A4E96"></path><path d="M250.751 161.748C246.962 163.407 240.681 166.182 240.484 166.504C240.594 166.137 242.33 159.863 243.492 155.656C245.073 156.09 246.54 156.859 247.793 157.911C249.047 158.963 250.056 160.271 250.751 161.748Z" fill="#F78248"></path><path d="M135.706 96.6367H99.2573C97.2059 96.6367 95.543 98.2901 95.543 100.33V118.697C95.543 120.737 97.2059 122.39 99.2573 122.39H135.706C137.757 122.39 139.42 120.737 139.42 118.697V100.33C139.42 98.2901 137.757 96.6367 135.706 96.6367Z" fill="#2A4E96"></path><path d="M115.414 117.841H99.1914V112.708H115.414V117.841ZM99.3899 117.642H115.214V112.905H99.3899V117.642Z" fill="#C0D4FF"></path><path d="M106.642 114.086H100.367V114.493H106.642V114.086Z" fill="#C0D4FF"></path><path d="M111.757 114.086H107.305V114.493H111.757V114.086Z" fill="#C0D4FF"></path><path d="M103.83 115.249H100.367V115.655H103.83V115.249Z" fill="#C0D4FF"></path><path d="M108.87 115.249H104.418V115.655H108.87V115.249Z" fill="#C0D4FF"></path><path d="M113.784 115.249H109.332V115.655H113.784V115.249Z" fill="#C0D4FF"></path><path d="M134.765 117.841H118.535V112.708H134.765V117.841ZM118.741 117.642H134.565V112.905H118.741V117.642Z" fill="#C0D4FF"></path><path d="M125.99 114.086H119.715V114.493H125.99V114.086Z" fill="#C0D4FF"></path><path d="M131.101 114.086H126.648V114.493H131.101V114.086Z" fill="#C0D4FF"></path><path d="M123.179 115.249H119.715V115.655H123.179V115.249Z" fill="#C0D4FF"></path><path d="M128.214 115.249H123.762V115.655H128.214V115.249Z" fill="#C0D4FF"></path><path d="M133.128 115.249H128.676V115.655H133.128V115.249Z" fill="#C0D4FF"></path><path d="M135.772 110.672H99.1914V107.723H135.772V110.672ZM99.5424 110.326H135.42V108.068H99.5381L99.5424 110.326Z" fill="#C0D4FF"></path><path d="M127.755 107.895H99.3633V110.499H127.755V107.895Z" fill="#C0D4FF"></path><path d="M135.772 104.808H99.1914V101.859H135.772V104.808ZM99.5424 104.463H135.42V102.205H99.5381L99.5424 104.463Z" fill="#C0D4FF"></path><path d="M118.21 101.859H99.1914V104.808H118.21V101.859Z" fill="#F99746"></path><path d="M137.258 240.533L135.375 241.198C135.375 241.198 127.193 230.449 126.184 220.992C126.005 219.304 126.065 217.668 126.453 216.158L126.235 214.96C126.17 214.604 126.091 214.174 125.999 213.682C125.733 212.239 125.366 210.263 124.949 208.014C123.985 202.839 122.738 196.222 121.77 191.358L122.277 191.203L127.77 189.526L128.903 186.112L132.993 185.092C132.993 185.092 133.908 186.784 134.719 194.781C134.863 195.829 135.007 196.985 135.111 198.239C135.487 202.908 135.356 207.604 134.721 212.246C134.529 213.634 134.289 215.064 134.002 216.537C133.786 217.618 133.754 219.09 133.845 220.782C134.262 228.52 137.258 240.533 137.258 240.533Z" fill="#F99746"></path><path d="M135.115 198.239L126.235 214.96C126.17 214.604 126.091 214.174 125.999 213.682C125.733 212.239 125.366 210.263 124.949 208.014C123.985 202.839 122.738 196.222 121.77 191.358L122.277 191.203L127.77 189.526L128.903 186.112L132.993 185.092C132.993 185.092 133.908 186.784 134.719 194.781C134.875 195.829 135.011 196.99 135.115 198.239Z" fill="#ED7D2B"></path><path d="M131.207 187.237L131.001 185.568C127.557 186.435 118.355 183.146 118.355 183.146C118.355 183.146 115.017 185.924 115.456 192.586C115.67 195.836 116.06 209.647 116.463 213.733C116.607 215.214 116.739 216.268 116.792 216.69C116.803 216.818 116.768 216.946 116.693 217.051C116.102 218.006 115.598 219.011 115.187 220.055C111.184 230.16 115.804 242.605 115.804 242.605L117.002 242.147C117.002 242.147 119.632 228.298 121.768 222.179C122.131 221.142 122.479 220.327 122.798 219.839C123.726 218.419 124.588 216.099 125.372 213.34C126.849 208.122 128.04 201.335 128.833 196.098C128.948 196.098 131.207 187.237 131.207 187.237Z" fill="#F99746"></path><path d="M122.781 243.529H113.286C113.286 243.529 113.059 242.159 113.554 241.12C114.029 240.119 114.774 239.67 114.596 238.463C115.198 239.051 116.178 239.71 117.552 239.534C117.72 239.793 118.638 241.173 119.199 241.557C119.825 241.979 122.59 241.828 122.781 243.529Z" fill="#1D4677"></path><path d="M143.155 243.529H133.667C133.667 243.529 133.312 242.099 133.935 241.12C134.487 240.262 134.276 239.766 133.867 239.051C134.373 239.258 134.918 239.356 135.465 239.337C135.964 239.284 136.446 239.123 136.875 238.866C137.284 239.307 139.033 241.185 139.58 241.557C140.2 241.979 142.968 241.828 143.155 243.529Z" fill="#1D4677"></path><path d="M134.172 144.233C134.162 143.989 133.963 141.372 129.75 141.229C129.75 141.229 131.821 141.462 132.18 142.325C132.18 142.325 130.768 141.259 129.62 141.602C128.472 141.946 127.796 143.851 127.789 144.479C127.782 145.107 128.421 147.128 129.15 147.299C129.442 147.354 129.741 147.354 130.033 147.299C129.825 147.606 129.636 147.926 129.468 148.256C127.786 151.524 129.52 154.718 130.944 154.366C131.856 154.139 132.115 155.615 132.115 155.615L140.984 148.814C140.984 148.814 137.727 142.436 134.172 144.233Z" fill="#2C3A64"></path><path d="M133.822 167.865C127.899 168.173 129.201 159.813 129.562 159.856C130.282 159.498 131.588 157.757 132.34 154.85L132.595 154.963L136.869 156.865C136.869 156.865 136.414 158.181 136.079 159.439C135.817 160.426 135.63 161.379 135.791 161.645C136.128 161.775 136.329 161.857 136.329 161.857C136.37 161.96 135.402 167.784 133.822 167.865Z" fill="#FFB27D"></path><path d="M118.178 172.532C118.689 170.959 119.216 169.462 119.75 168.074C120.964 164.919 121.737 163.273 122.391 161.995C123.639 159.564 129.209 159.721 129.209 159.721C130.28 163.383 133.237 165.666 133.237 165.666C134.809 164.792 135.978 161.718 135.978 161.718C135.978 161.718 139.84 163.183 141.412 166.581C143.099 170.227 145.033 175.68 146.591 177.315C146.953 177.694 148.015 178.271 149.299 178.889C149.328 178.929 149.35 178.949 149.363 178.949C149.063 179.606 148.703 180.235 148.288 180.828C147.798 181.527 147.152 182.235 146.389 182.6C145.804 182.331 144.746 181.938 144.299 181.676C142.679 180.739 140.37 178.083 138.484 175.24L137.856 183.25L136.903 195.367C135.439 195.796 134.047 196.134 132.732 196.392C132.648 195.639 132.504 194.893 132.3 194.163C132.314 194.799 131.528 196.022 131.062 196.683C118.912 198.525 113.215 193.506 113.215 193.506C113.681 189.054 115.728 180.066 118.178 172.532Z" fill="#8C9DF4"></path><path d="M148.288 180.828C147.798 181.527 147.152 182.235 146.389 182.6C145.804 182.331 144.746 181.938 144.299 181.676C142.679 180.739 140.37 178.082 138.484 175.24C138.555 174.344 143.503 178.943 144.132 179.776C144.607 180.399 147.057 180.713 148.288 180.828Z" fill="#6980E2"></path><path d="M136.868 156.859C136.868 156.859 136.413 158.175 136.078 159.434C133.581 158.773 132.822 156.287 132.594 154.954L136.868 156.859Z" fill="#ED985F"></path><path d="M137.395 158.252C137.395 158.252 131.42 156.942 132.338 153.431C133.256 149.92 133.105 147.387 136.957 148.073C140.81 148.76 141.2 150.274 141.194 151.517C141.188 152.76 138.973 158.503 137.395 158.252Z" fill="#FFB27D"></path><path d="M141.527 149.523C140.884 148.25 140.129 148.319 139.657 148.544C136.849 146.084 134.096 148.095 134.096 148.095C133.04 150.519 130.738 151.507 130.738 151.507C130.738 151.507 131.656 152.397 134.317 152.378C135.13 152.371 135.947 152.018 136.691 151.531C135.756 152.4 134.708 153.14 133.575 153.731C136.905 153.129 139.138 149.476 139.367 149.089C139.654 149.483 140.188 150.323 140.23 151.032C140.292 151.996 139.942 153.869 140.518 153.94C140.529 153.939 142.491 151.433 141.527 149.523Z" fill="#2C3A64"></path><path d="M130.438 159.043C130.438 159.043 129.431 159.107 129.211 159.719C129.211 159.719 130.53 164.748 133.239 165.664L130.438 159.043Z" fill="#6980E2"></path><path d="M133.23 165.667C133.23 165.667 135.454 161.861 135.741 161.099C135.741 161.099 136.782 161.483 136.718 162.1C136.718 162.091 134.544 165.389 133.23 165.667Z" fill="#6980E2"></path><path d="M143.687 184.187C143.687 184.187 145.026 183.521 145.531 183.133C146.036 182.746 146.107 183.05 145.963 183.314C145.8 183.615 145.587 183.886 145.023 184.225C144.459 184.564 143.543 184.448 143.687 184.187Z" fill="#FFB27D"></path><path d="M126.309 163.875C126.382 164.112 135.478 177.867 135.676 180.609C135.875 183.351 131.851 181.799 131.792 181.443C131.733 181.087 126.309 163.875 126.309 163.875Z" fill="#6980E2"></path><path d="M137.856 183.239L136.904 195.357C123.891 191.807 123.176 165.8 123.176 165.8L131.217 179.551L137.786 183.146L137.856 183.239Z" fill="#6980E2"></path><path d="M149.37 178.921C149.37 178.936 149.36 178.943 149.352 178.943L149.363 178.917C149.375 178.896 149.377 178.896 149.37 178.921Z" fill="#ABDDDA"></path><path d="M196.424 175.12H147.447C146.013 175.12 144.852 176.275 144.852 177.7V196.7C144.852 198.125 146.013 199.28 147.447 199.28H196.424C197.857 199.28 199.019 198.125 199.019 196.7V177.7C199.019 176.275 197.857 175.12 196.424 175.12Z" fill="#2A4E96"></path><path d="M154.967 180.186L154.511 180.329L154.391 179.708L155.144 179.412H155.539V182.886H154.963L154.967 180.186Z" fill="#BDD1F9"></path><path d="M156.832 181.165C156.832 180.164 157.305 179.382 158.002 179.382C158.698 179.382 159.164 180.156 159.164 181.165C159.164 182.175 158.695 182.95 157.994 182.95C157.294 182.95 156.832 182.177 156.832 181.165ZM158.571 181.165C158.571 180.54 158.34 180.067 157.996 180.067C157.652 180.067 157.42 180.525 157.42 181.165C157.42 181.806 157.649 182.265 157.996 182.265C158.343 182.265 158.571 181.802 158.571 181.165Z" fill="#BDD1F9"></path><path d="M160.32 181.165C160.32 180.164 160.792 179.382 161.49 179.382C162.188 179.382 162.652 180.156 162.652 181.165C162.652 182.175 162.183 182.95 161.481 182.95C160.779 182.95 160.32 182.177 160.32 181.165ZM162.06 181.165C162.06 180.54 161.826 180.067 161.484 180.067C161.142 180.067 160.909 180.525 160.909 181.165C160.909 181.806 161.137 182.265 161.484 182.265C161.831 182.265 162.06 181.802 162.06 181.165Z" fill="#F77D48"></path><path d="M164.257 180.186L163.799 180.329L163.68 179.708L164.433 179.412H164.826V182.886H164.251L164.257 180.186Z" fill="#F77D48"></path><path d="M180.124 180.186L179.666 180.329L179.547 179.708L180.301 179.412H180.693V182.886H180.118L180.124 180.186Z" fill="#BDD1F9"></path><path d="M181.988 181.165C181.988 180.164 182.46 179.382 183.158 179.382C183.856 179.382 184.32 180.156 184.32 181.165C184.32 182.175 183.851 182.95 183.151 182.95C182.45 182.95 181.988 182.177 181.988 181.165ZM183.727 181.165C183.727 180.54 183.494 180.067 183.152 180.067C182.81 180.067 182.577 180.525 182.577 181.165C182.577 181.806 182.805 182.265 183.152 182.265C183.499 182.265 183.727 181.802 183.727 181.165Z" fill="#BDD1F9"></path><path d="M185.477 181.165C185.477 180.164 185.95 179.382 186.646 179.382C187.342 179.382 187.808 180.156 187.808 181.165C187.808 182.175 187.341 182.95 186.639 182.95C185.937 182.95 185.477 182.177 185.477 181.165ZM187.217 181.165C187.217 180.54 186.984 180.067 186.642 180.067C186.299 180.067 186.066 180.525 186.066 181.165C186.066 181.806 186.295 182.265 186.642 182.265C186.988 182.265 187.217 181.802 187.217 181.165Z" fill="#F77D48"></path><path d="M189.409 180.186L188.951 180.329L188.832 179.708L189.586 179.412H189.979V182.886H189.403L189.409 180.186Z" fill="#F77D48"></path><path d="M166.125 181.165C166.125 180.164 166.597 179.382 167.295 179.382C167.992 179.382 168.457 180.156 168.457 181.165C168.457 182.175 167.988 182.95 167.287 182.95C166.587 182.95 166.125 182.177 166.125 181.165ZM167.864 181.165C167.864 180.54 167.633 180.067 167.289 180.067C166.945 180.067 166.713 180.525 166.713 181.165C166.713 181.806 166.942 182.265 167.289 182.265C167.635 182.265 167.851 181.802 167.851 181.165H167.864Z" fill="#BDD1F9"></path><path d="M169.605 181.165C169.605 180.164 170.079 179.382 170.776 179.382C171.474 179.382 171.937 180.156 171.937 181.165C171.937 182.175 171.468 182.95 170.768 182.95C170.067 182.95 169.605 182.177 169.605 181.165ZM171.346 181.165C171.346 180.54 171.113 180.067 170.771 180.067C170.428 180.067 170.195 180.525 170.195 181.165C170.195 181.806 170.424 182.265 170.771 182.265C171.117 182.265 171.346 181.802 171.346 181.165Z" fill="#BDD1F9"></path><path d="M173.094 181.165C173.094 180.164 173.566 179.382 174.263 179.382C174.961 179.382 175.426 180.156 175.426 181.165C175.426 182.175 174.957 182.95 174.256 182.95C173.556 182.95 173.094 182.177 173.094 181.165ZM174.833 181.165C174.833 180.54 174.6 180.067 174.258 180.067C173.915 180.067 173.682 180.525 173.682 181.165C173.682 181.806 173.911 182.265 174.258 182.265C174.604 182.265 174.833 181.802 174.833 181.165Z" fill="#BDD1F9"></path><path d="M176.578 181.165C176.578 180.164 177.051 179.382 177.748 179.382C178.444 179.382 178.91 180.156 178.91 181.165C178.91 182.175 178.442 182.95 177.74 182.95C177.038 182.95 176.578 182.177 176.578 181.165ZM178.317 181.165C178.317 180.54 178.086 180.067 177.742 180.067C177.398 180.067 177.166 180.525 177.166 181.165C177.166 181.806 177.395 182.265 177.742 182.265C178.089 182.265 178.317 181.802 178.317 181.165Z" fill="#BDD1F9"></path><path d="M154.967 191.475L154.511 191.618L154.391 190.997L155.144 190.701H155.539V194.175H154.963L154.967 191.475Z" fill="#BDD1F9"></path><path d="M156.832 192.456C156.832 191.455 157.305 190.672 158.002 190.672C158.698 190.672 159.164 191.446 159.164 192.456C159.164 193.466 158.695 194.241 157.994 194.241C157.294 194.241 156.832 193.467 156.832 192.456ZM158.571 192.456C158.571 191.831 158.34 191.357 157.996 191.357C157.652 191.357 157.42 191.815 157.42 192.456C157.42 193.097 157.649 193.556 157.996 193.556C158.343 193.556 158.571 193.092 158.571 192.456Z" fill="#BDD1F9"></path><path d="M160.32 192.456C160.32 191.455 160.792 190.672 161.49 190.672C162.188 190.672 162.652 191.446 162.652 192.456C162.652 193.466 162.183 194.241 161.481 194.241C160.779 194.241 160.32 193.467 160.32 192.456ZM162.06 192.456C162.06 191.831 161.826 191.357 161.484 191.357C161.142 191.357 160.909 191.815 160.909 192.456C160.909 193.097 161.137 193.556 161.484 193.556C161.831 193.556 162.06 193.092 162.06 192.456Z" fill="#F77D48"></path><path d="M164.257 191.475L163.799 191.618L163.68 190.997L164.433 190.701H164.826V194.175H164.251L164.257 191.475Z" fill="#F77D48"></path><path d="M180.124 191.475L179.666 191.618L179.547 190.997L180.301 190.701H180.693V194.175H180.118L180.124 191.475Z" fill="#BDD1F9"></path><path d="M181.988 192.456C181.988 191.455 182.46 190.672 183.158 190.672C183.856 190.672 184.32 191.446 184.32 192.456C184.32 193.466 183.851 194.241 183.151 194.241C182.45 194.241 181.988 193.467 181.988 192.456ZM183.727 192.456C183.727 191.831 183.494 191.357 183.152 191.357C182.81 191.357 182.577 191.815 182.577 192.456C182.577 193.097 182.805 193.556 183.152 193.556C183.499 193.556 183.727 193.092 183.727 192.456Z" fill="#BDD1F9"></path><path d="M185.477 192.456C185.477 191.455 185.95 190.672 186.646 190.672C187.342 190.672 187.808 191.446 187.808 192.456C187.808 193.466 187.341 194.241 186.639 194.241C185.937 194.241 185.477 193.467 185.477 192.456ZM187.217 192.456C187.217 191.831 186.984 191.357 186.642 191.357C186.299 191.357 186.066 191.815 186.066 192.456C186.066 193.097 186.295 193.556 186.642 193.556C186.988 193.556 187.217 193.092 187.217 192.456Z" fill="#F77D48"></path><path d="M189.409 191.475L188.951 191.618L188.832 190.997L189.586 190.701H189.979V194.175H189.403L189.409 191.475Z" fill="#F77D48"></path><path d="M166.125 192.456C166.125 191.455 166.597 190.672 167.295 190.672C167.992 190.672 168.457 191.446 168.457 192.456C168.457 193.466 167.988 194.241 167.287 194.241C166.587 194.241 166.125 193.467 166.125 192.456ZM167.864 192.456C167.864 191.831 167.633 191.357 167.289 191.357C166.945 191.357 166.713 191.815 166.713 192.456C166.713 193.097 166.942 193.556 167.289 193.556C167.635 193.556 167.851 193.092 167.851 192.456H167.864Z" fill="#BDD1F9"></path><path d="M169.605 192.456C169.605 191.455 170.079 190.672 170.776 190.672C171.474 190.672 171.937 191.446 171.937 192.456C171.937 193.466 171.468 194.241 170.768 194.241C170.067 194.241 169.605 193.467 169.605 192.456ZM171.346 192.456C171.346 191.831 171.113 191.357 170.771 191.357C170.428 191.357 170.195 191.815 170.195 192.456C170.195 193.097 170.424 193.556 170.771 193.556C171.117 193.556 171.346 193.092 171.346 192.456Z" fill="#BDD1F9"></path><path d="M173.094 192.456C173.094 191.455 173.566 190.672 174.263 190.672C174.961 190.672 175.426 191.446 175.426 192.456C175.426 193.466 174.957 194.241 174.256 194.241C173.556 194.241 173.094 193.467 173.094 192.456ZM174.833 192.456C174.833 191.831 174.6 191.357 174.258 191.357C173.915 191.357 173.682 191.815 173.682 192.456C173.682 193.097 173.911 193.556 174.258 193.556C174.604 193.556 174.833 193.092 174.833 192.456Z" fill="#BDD1F9"></path><path d="M176.578 192.456C176.578 191.455 177.051 190.672 177.748 190.672C178.444 190.672 178.91 191.446 178.91 192.456C178.91 193.466 178.442 194.241 177.74 194.241C177.038 194.241 176.578 193.467 176.578 192.456ZM178.317 192.456C178.317 191.831 178.086 191.357 177.742 191.357C177.398 191.357 177.166 191.815 177.166 192.456C177.166 193.097 177.395 193.556 177.742 193.556C178.089 193.556 178.317 193.092 178.317 192.456Z" fill="#BDD1F9"></path><path d="M166.832 185.834L166.375 185.977L166.254 185.356L167.008 185.06H167.402V188.534H166.826L166.832 185.834Z" fill="#BDD1F9"></path><path d="M164.428 185.834L163.972 185.977L163.852 185.356L164.605 185.06H165V188.534H164.424L164.428 185.834Z" fill="#BDD1F9"></path><path d="M168.699 186.814C168.699 185.813 169.171 185.03 169.869 185.03C170.566 185.03 171.031 185.804 171.031 186.814C171.031 187.824 170.562 188.599 169.862 188.599C169.161 188.599 168.699 187.825 168.699 186.814ZM170.438 186.814C170.438 186.189 170.207 185.715 169.863 185.715C169.519 185.715 169.288 186.173 169.288 186.814C169.288 187.455 169.516 187.914 169.863 187.914C170.21 187.914 170.444 187.45 170.444 186.814H170.438Z" fill="#BDD1F9"></path><path d="M172.184 186.814C172.184 185.813 172.655 185.03 173.353 185.03C174.051 185.03 174.515 185.804 174.515 186.814C174.515 187.824 174.047 188.599 173.345 188.599C172.643 188.599 172.184 187.825 172.184 186.814ZM173.923 186.814C173.923 186.189 173.69 185.715 173.347 185.715C173.005 185.715 172.772 186.173 172.772 186.814C172.772 187.455 173.001 187.914 173.347 187.914C173.694 187.914 173.923 187.45 173.923 186.814Z" fill="#F77D48"></path><path d="M176.116 185.834L175.658 185.977L175.539 185.356L176.293 185.06H176.686V188.534H176.11L176.116 185.834Z" fill="#F77D48"></path><path d="M177.984 186.814C177.984 185.813 178.456 185.03 179.154 185.03C179.852 185.03 180.316 185.804 180.316 186.814C180.316 187.824 179.847 188.599 179.147 188.599C178.446 188.599 177.984 187.825 177.984 186.814ZM179.724 186.814C179.724 186.189 179.492 185.715 179.148 185.715C178.804 185.715 178.573 186.173 178.573 186.814C178.573 187.455 178.801 187.914 179.148 187.914C179.495 187.914 179.724 187.45 179.724 186.814Z" fill="#BDD1F9"></path><path d="M181.469 186.814C181.469 185.813 181.942 185.03 182.638 185.03C183.335 185.03 183.801 185.804 183.801 186.814C183.801 187.824 183.333 188.599 182.631 188.599C181.929 188.599 181.469 187.825 181.469 186.814ZM183.208 186.814C183.208 186.189 182.976 185.715 182.633 185.715C182.289 185.715 182.057 186.173 182.057 186.814C182.057 187.455 182.286 187.914 182.633 187.914C182.979 187.914 183.208 187.45 183.208 186.814Z" fill="#BDD1F9"></path><path d="M184.957 186.814C184.957 185.813 185.429 185.03 186.127 185.03C186.824 185.03 187.289 185.804 187.289 186.814C187.289 187.824 186.82 188.599 186.119 188.599C185.419 188.599 184.957 187.825 184.957 186.814ZM186.696 186.814C186.696 186.189 186.463 185.715 186.121 185.715C185.778 185.715 185.545 186.173 185.545 186.814C185.545 187.455 185.774 187.914 186.121 187.914C186.468 187.914 186.699 187.45 186.699 186.814H186.696Z" fill="#BDD1F9"></path><path d="M154.117 186.814C154.117 185.813 154.589 185.03 155.287 185.03C155.984 185.03 156.448 185.804 156.448 186.814C156.448 187.824 155.98 188.599 155.278 188.599C154.576 188.599 154.117 187.825 154.117 186.814ZM155.856 186.814C155.856 186.189 155.623 185.715 155.281 185.715C154.939 185.715 154.706 186.173 154.706 186.814C154.706 187.455 154.934 187.914 155.281 187.914C155.628 187.914 155.856 187.45 155.856 186.814Z" fill="#BDD1F9"></path><path d="M157.602 186.814C157.602 185.813 158.073 185.03 158.771 185.03C159.469 185.03 159.933 185.804 159.933 186.814C159.933 187.824 159.464 188.599 158.764 188.599C158.063 188.599 157.602 187.825 157.602 186.814ZM159.341 186.814C159.341 186.189 159.109 185.715 158.765 185.715C158.422 185.715 158.19 186.173 158.19 186.814C158.19 187.455 158.419 187.914 158.765 187.914C159.112 187.914 159.341 187.45 159.341 186.814Z" fill="#BDD1F9"></path><path d="M161.09 186.814C161.09 185.813 161.562 185.03 162.259 185.03C162.957 185.03 163.42 185.804 163.42 186.814C163.42 187.824 162.953 188.599 162.251 188.599C161.549 188.599 161.09 187.825 161.09 186.814ZM162.829 186.814C162.829 186.189 162.596 185.715 162.254 185.715C161.911 185.715 161.678 186.173 161.678 186.814C161.678 187.455 161.907 187.914 162.254 187.914C162.6 187.914 162.828 187.45 162.828 186.814H162.829Z" fill="#BDD1F9"></path><path d="M188.441 186.814C188.441 185.813 188.915 185.03 189.611 185.03C190.307 185.03 190.773 185.804 190.773 186.814C190.773 187.824 190.304 188.599 189.604 188.599C188.903 188.599 188.441 187.825 188.441 186.814ZM190.182 186.814C190.182 186.189 189.949 185.715 189.607 185.715C189.264 185.715 189.031 186.173 189.031 186.814C189.031 187.455 189.26 187.914 189.607 187.914C189.953 187.914 190.182 187.45 190.182 186.814Z" fill="#BDD1F9"></path><path d="M143.644 184.349L143.145 186.077L141.52 185.791C141.221 185.735 141.049 185.695 141.049 185.695C140.251 185.552 139.297 185.345 138.256 185.123H138.24C136.459 184.718 134.464 184.232 132.781 183.693L132.337 183.55C131.483 183.27 130.657 182.909 129.872 182.471C129.803 182.43 129.736 182.385 129.672 182.337C128.005 181.193 133.268 178.421 134.131 179.014C134.362 179.173 134.61 179.336 134.869 179.505C136.308 180.432 138.146 181.466 139.778 182.337C140.576 182.766 141.331 183.161 141.958 183.481C142.974 184.01 143.644 184.349 143.644 184.349Z" fill="#FFB27D"></path><path d="M134.872 179.505C134.872 179.505 134.975 182.769 131.749 184.358C128.018 183.082 126.023 177.813 124.483 174.194C124.27 173.695 124.07 173.193 123.87 172.709C123.201 171.042 122.66 169.326 122.251 167.578C122.051 166.776 121.922 165.959 121.867 165.135C121.853 164.891 126.183 162.028 126.714 163.122C127.526 164.864 128.381 167.118 129.179 169.36C129.622 170.59 130.043 171.818 130.474 172.953C130.717 173.641 130.96 174.288 131.193 174.882C131.636 176.018 132.035 176.936 132.39 177.515C132.619 177.894 133.275 178.421 134.144 179.014C134.364 179.173 134.613 179.336 134.872 179.505Z" fill="#8C9DF4"></path><path d="M142.823 184.026C142.823 184.026 144.443 184.425 144.837 184.219C145.231 184.013 146.995 183.73 147.391 184.261C147.924 184.976 148.526 186.347 148.193 186.679C147.861 187.011 147.025 186.088 145.869 186.422C145.283 186.592 144.115 187.085 143.406 186.61C142.697 186.136 141.859 185.441 141.859 185.441L142.823 184.026Z" fill="#FFB27D"></path><path d="M118.565 71.1149L122.514 71.2121C122.675 71.2178 122.832 71.2675 122.966 71.3558C123.101 71.4441 123.208 71.5676 123.277 71.7127C123.454 72.0903 123.646 72.4636 123.852 72.8326C124.234 73.5056 124.67 74.1474 125.154 74.7521C125.264 74.8861 125.33 75.0499 125.345 75.2222C125.36 75.3945 125.322 75.5671 125.236 75.7175L123.222 79.2933C123.116 79.4785 123.085 79.6965 123.135 79.9037C123.184 80.1109 123.31 80.2918 123.488 80.4103L126.61 82.5186C126.779 82.6336 126.986 82.6826 127.19 82.6563C127.393 82.6299 127.58 82.53 127.715 82.3755L130.177 79.4978C130.294 79.3588 130.453 79.2611 130.631 79.2193C130.808 79.1775 130.994 79.194 131.161 79.2661C132.651 79.8837 134.229 80.2617 135.838 80.386C136.03 80.4019 136.21 80.4809 136.351 80.6104C136.493 80.74 136.586 80.9127 136.618 81.1011L137.003 83.3681C137.042 83.5765 137.155 83.7638 137.322 83.8954C137.489 84.0269 137.698 84.0937 137.911 84.0833L141.651 83.8501C141.726 83.8471 141.8 83.8336 141.871 83.8101C142.038 83.756 142.184 83.6514 142.289 83.5109C142.393 83.3704 142.451 83.201 142.454 83.0263L142.53 80.0942L142.547 79.3791C143.21 79.1193 143.853 78.8129 144.472 78.4623C145.3 77.9969 146.083 77.4558 146.81 76.846C146.94 76.7333 147.103 76.6636 147.275 76.6465C147.447 76.6293 147.62 76.6655 147.771 76.7502L150.671 78.3679C150.862 78.4745 151.086 78.5059 151.299 78.4559C151.513 78.4058 151.699 78.2779 151.822 78.0975L153.443 75.7247L153.906 75.0439C154.029 74.865 154.082 74.6471 154.053 74.4321C154.024 74.2172 153.917 74.0204 153.751 73.8796L151.334 71.8314C151.196 71.7192 151.098 71.5663 151.053 71.3948C151.008 71.2233 151.02 71.0422 151.085 70.8774C151.477 69.8738 151.76 68.8314 151.928 67.768C151.948 67.6797 151.963 67.5904 151.973 67.5005C151.976 67.4704 151.982 67.4407 151.992 67.4119C152.032 67.2475 152.12 67.0986 152.245 66.9839C152.369 66.8691 152.526 66.7936 152.694 66.7668L156.395 66.1375C156.436 66.132 156.477 66.122 156.516 66.1074C156.697 66.0474 156.854 65.9298 156.962 65.7728C157.07 65.6158 157.124 65.4279 157.114 65.2378L156.885 61.5305C156.874 61.3139 156.78 61.1096 156.623 60.9589C156.466 60.8082 156.258 60.7222 156.04 60.7181L151.921 60.618C151.751 60.615 151.585 60.5607 151.447 60.4624C151.308 60.3641 151.203 60.2264 151.144 60.0673C150.863 59.3411 150.526 58.6372 150.137 57.962C149.928 57.5977 149.706 57.2449 149.471 56.9035C149.378 56.7679 149.325 56.6091 149.318 56.4451C149.311 56.2811 149.35 56.1184 149.431 55.9753L151.372 52.5312C151.475 52.3473 151.506 52.1315 151.457 51.9263C151.409 51.7211 151.285 51.5414 151.11 51.4227L148.018 49.3416C147.838 49.2186 147.618 49.1666 147.401 49.1957C147.184 49.2247 146.986 49.3328 146.844 49.499L144.895 51.7731C144.77 51.9219 144.598 52.0243 144.407 52.0635C144.216 52.1027 144.018 52.0765 143.844 51.9891C142.441 51.2821 140.937 50.7948 139.384 50.5445C139.203 50.5164 139.036 50.432 138.907 50.3035C138.778 50.1749 138.693 50.0089 138.665 49.8293L138.089 46.5139C138.052 46.2991 137.936 46.1055 137.764 45.97C137.592 45.8345 137.376 45.7664 137.157 45.7788L133.443 46.0019C133.228 46.0145 133.026 46.107 132.877 46.261C132.728 46.415 132.643 46.6192 132.639 46.8329V47.0031L132.551 50.41C132.547 50.5873 132.488 50.7589 132.383 50.9021C132.278 51.0453 132.131 51.153 131.963 51.211C131.116 51.5076 130.298 51.8786 129.517 52.3195C129.094 52.5583 128.691 52.8172 128.297 53.089C128.165 53.1827 128.008 53.2372 127.846 53.2463C127.683 53.2554 127.522 53.2187 127.379 53.1405L124.436 51.4971C124.242 51.3888 124.015 51.3566 123.798 51.4069C123.582 51.4572 123.392 51.5863 123.267 51.7688L121.181 54.8282C121.125 54.9135 121.083 55.0072 121.057 55.1057C121.019 55.2618 121.025 55.4252 121.074 55.5782C121.123 55.7312 121.213 55.868 121.335 55.9739L123.271 57.6044C123.385 57.7036 123.471 57.8303 123.522 57.9724C123.572 58.1144 123.585 58.267 123.559 58.4154C123.543 58.4956 123.518 58.5735 123.482 58.6471C122.575 60.4407 122.037 62.3965 121.9 64.3997C121.889 64.5651 121.83 64.7237 121.729 64.8559C121.629 64.9881 121.492 65.0881 121.335 65.1434C121.288 65.1593 121.24 65.1712 121.191 65.1792L118.201 65.6898C117.991 65.7248 117.801 65.8361 117.668 66.0022C117.535 66.1684 117.469 66.3776 117.482 66.5894V66.6767L117.701 70.2896C117.714 70.5099 117.811 70.7171 117.971 70.87C118.131 71.0228 118.343 71.1103 118.565 71.1149ZM144.961 63.5444C145.112 64.1542 145.206 64.7767 145.24 65.4037C145.311 66.6509 144.797 68.5346 144.09 69.5702C144.013 69.6817 143.937 69.789 143.859 69.8977C139.082 76.3984 129.3 73.635 128.762 65.4881C128.693 64.4226 129.035 62.9322 129.567 61.828C129.683 61.5886 129.816 61.3582 129.966 61.1386C130.565 60.2563 131.312 59.4824 132.174 58.8502C136.812 55.5047 143.475 57.7231 144.961 63.5444Z" fill="#D5DFFC"></path><path d="M241.254 107.852L246.744 107.237C246.968 107.214 247.194 107.253 247.397 107.35C247.6 107.447 247.773 107.598 247.895 107.786C248.212 108.276 248.553 108.757 248.916 109.228C249.576 110.088 250.303 110.895 251.091 111.641C251.269 111.806 251.392 112.02 251.445 112.256C251.498 112.492 251.479 112.738 251.389 112.962L249.283 118.307C249.173 118.584 249.172 118.892 249.28 119.17C249.389 119.447 249.599 119.673 249.869 119.803L254.598 122.132C254.857 122.258 255.152 122.286 255.43 122.209C255.707 122.133 255.946 121.958 256.102 121.717L258.962 117.262C259.097 117.047 259.298 116.881 259.536 116.79C259.773 116.699 260.034 116.687 260.279 116.755C262.462 117.327 264.722 117.55 266.976 117.418C267.243 117.404 267.508 117.479 267.728 117.631C267.948 117.783 268.112 118.003 268.193 118.257L269.162 121.325C269.254 121.608 269.447 121.848 269.704 121.999C269.96 122.151 270.264 122.204 270.558 122.149L275.695 121.116C275.798 121.098 275.899 121.065 275.993 121.018C276.214 120.912 276.396 120.739 276.514 120.525C276.632 120.31 276.679 120.064 276.649 119.822L276.193 115.75L276.08 114.749C276.948 114.262 277.78 113.716 278.571 113.113C279.629 112.309 280.609 111.408 281.499 110.424C281.659 110.243 281.872 110.116 282.107 110.06C282.342 110.003 282.589 110.021 282.814 110.109L287.143 111.8C287.428 111.91 287.744 111.911 288.029 111.801C288.315 111.691 288.548 111.479 288.684 111.206L290.475 107.61L290.985 106.579C291.121 106.308 291.152 105.996 291.071 105.704C290.99 105.412 290.803 105.159 290.546 104.996L286.806 102.616C286.594 102.486 286.429 102.293 286.334 102.064C286.239 101.835 286.22 101.582 286.28 101.341C286.632 99.8766 286.825 98.3786 286.855 96.8731C286.865 96.747 286.869 96.6205 286.867 96.494C286.865 96.4514 286.868 96.4088 286.875 96.3667C286.899 96.1315 286.992 95.9084 287.143 95.7259C287.294 95.5433 287.496 95.4094 287.724 95.3412L292.732 93.7679C292.788 93.7514 292.842 93.7299 292.894 93.7036C293.134 93.5856 293.329 93.3926 293.448 93.1542C293.568 92.9157 293.605 92.645 293.554 92.3834L292.527 87.2916C292.467 86.9945 292.298 86.7307 292.051 86.5519C291.805 86.3732 291.501 86.2927 291.198 86.3261L285.471 86.9698C285.235 86.9979 284.995 86.9541 284.784 86.844C284.574 86.7339 284.401 86.5628 284.29 86.3533C283.762 85.4009 283.163 84.4895 282.496 83.6272C282.137 83.1609 281.762 82.7142 281.371 82.287C281.216 82.1167 281.112 81.9068 281.071 81.6809C281.029 81.455 281.052 81.222 281.137 81.0083L283.16 75.8693C283.268 75.5949 283.269 75.2901 283.162 75.015C283.056 74.7399 282.85 74.5145 282.584 74.3832L277.902 72.0862C277.628 71.9502 277.313 71.92 277.018 72.0014C276.723 72.0827 276.469 72.2699 276.305 72.5267L274.019 76.0495C273.873 76.2783 273.655 76.4518 273.398 76.542C273.141 76.6323 272.861 76.6341 272.603 76.5473C270.523 75.8336 268.344 75.4448 266.144 75.3945C265.889 75.391 265.641 75.3073 265.436 75.1552C265.232 75.003 265.081 74.7904 265.005 74.5477L263.578 70.0609C263.484 69.7692 263.286 69.522 263.02 69.3668C262.755 69.2116 262.441 69.1593 262.139 69.2199L257.035 70.2354C256.741 70.2935 256.479 70.4598 256.302 70.7012C256.125 70.9427 256.046 71.2416 256.08 71.5384L256.105 71.7773L256.637 76.5144C256.665 76.7606 256.617 77.0097 256.499 77.228C256.381 77.4464 256.199 77.6236 255.977 77.7358C254.864 78.3085 253.805 78.9786 252.812 79.7382C252.271 80.1502 251.762 80.5835 251.268 81.0369C251.103 81.1926 250.896 81.2983 250.672 81.3416C250.449 81.3849 250.217 81.364 250.005 81.2815L245.612 79.5652C245.323 79.4515 245.002 79.4499 244.711 79.5606C244.421 79.6713 244.184 79.8863 244.045 80.163L241.744 84.7986C241.682 84.9272 241.643 85.0649 241.626 85.2062C241.604 85.4289 241.644 85.6531 241.742 85.8547C241.839 86.0564 241.99 86.2278 242.178 86.3505L245.173 88.2427C245.351 88.3579 245.497 88.5169 245.595 88.7044C245.693 88.8919 245.74 89.1014 245.733 89.3126C245.727 89.4259 245.706 89.5379 245.671 89.6458C244.762 92.3042 244.396 95.1163 244.593 97.9172C244.611 98.1494 244.559 98.3817 244.445 98.5851C244.331 98.7885 244.16 98.9542 243.952 99.0614C243.891 99.092 243.827 99.1179 243.762 99.1386L239.707 100.412C239.422 100.501 239.181 100.691 239.029 100.947C238.877 101.202 238.825 101.504 238.882 101.795L238.905 101.913L239.904 106.879C239.966 107.18 240.139 107.447 240.389 107.627C240.639 107.807 240.948 107.887 241.254 107.852ZM276.377 92.3519C276.703 93.1677 276.952 94.0119 277.122 94.8735C277.457 96.5899 277.108 99.296 276.328 100.865C276.246 101.034 276.16 101.198 276.073 101.361C270.702 111.276 256.621 109.304 254.302 98.1174C254.001 96.6557 254.189 94.526 254.715 92.8926C254.829 92.5394 254.97 92.1952 255.135 91.8628C255.796 90.5275 256.682 89.3148 257.755 88.277C263.538 82.7547 273.199 84.5697 276.377 92.3519Z" fill="#D5DFFC"></path></svg> 